<svg width="1366" height="168" viewBox="0 0 1366 168" fill="none" xmlns="http://www.w3.org/2000/svg">
<g clip-path="url(#clip0_542_1573)">
<rect x="-318.705" y="58.7988" width="2000" height="120" transform="rotate(-2 -318.705 58.7988)" fill="#101014"/>
<path d="M20.8094 96.2754C23.3766 96.1858 25.3851 94.032 25.2954 91.4648C25.2058 88.8976 23.052 86.8891 20.4848 86.9788C17.9176 87.0684 15.9091 89.2222 15.9988 91.7894C16.0884 94.3566 18.2422 96.3651 20.8094 96.2754Z" fill="#DC0028"/>
<path d="M28.4785 99.1428C30.3572 100.895 33.3004 100.792 35.0523 98.9132C36.8042 97.0346 36.7014 94.0914 34.8227 92.3395C32.944 90.5876 30.0009 90.6904 28.249 92.5691C26.4971 94.4477 26.5998 97.3909 28.4785 99.1428Z" fill="#DC0028"/>
<path d="M10.4916 107.34C10.5812 109.907 8.57279 112.061 6.00559 112.151C3.43839 112.24 1.28459 110.232 1.19494 107.665C1.10529 105.097 3.11375 102.944 5.68094 102.854C8.24814 102.764 10.4019 104.773 10.4916 107.34Z" fill="#DC0028"/>
<path d="M6.78527 99.9003C8.66394 101.652 11.6071 101.549 13.359 99.6708C15.1109 97.7921 15.0081 94.849 13.1294 93.0971C11.2508 91.3452 8.3076 91.4479 6.55571 93.3266C4.80381 95.2053 4.90659 98.1485 6.78527 99.9003Z" fill="#DC0028"/>
<path d="M41.1706 106.269C41.2602 108.836 39.2518 110.99 36.6846 111.079C34.1174 111.169 31.9636 109.16 31.8739 106.593C31.7843 104.026 33.7927 101.872 36.3599 101.783C38.9271 101.693 41.0809 103.701 41.1706 106.269Z" fill="#DC0028"/>
<path d="M29.2361 120.836C31.1147 122.588 34.0579 122.485 35.8098 120.607C37.5617 118.728 37.4589 115.785 35.5803 114.033C33.7016 112.281 30.7584 112.384 29.0065 114.262C27.2546 116.141 27.3574 119.084 29.2361 120.836Z" fill="#DC0028"/>
<path d="M26.3668 122.144C26.4564 124.711 24.448 126.865 21.8807 126.954C19.3135 127.044 17.1597 125.036 17.0701 122.468C16.9804 119.901 18.9889 117.747 21.5561 117.658C24.1233 117.568 26.2771 119.577 26.3668 122.144Z" fill="#DC0028"/>
<path d="M7.54282 121.594C9.42149 123.346 12.3646 123.243 14.1165 121.364C15.8684 119.485 15.7657 116.542 13.887 114.79C12.0083 113.038 9.06515 113.141 7.31326 115.02C5.56136 116.899 5.66414 119.842 7.54282 121.594Z" fill="#DC0028"/>
<path d="M93.5464 125.292C90.4683 125.4 87.6863 124.817 85.2003 123.543C82.7543 122.267 80.7905 120.475 79.309 118.165C77.8275 115.855 77.0344 113.201 76.9297 110.203L75.933 81.6605L84.4478 81.3631L85.2351 103.909L81.1228 104.773C81.0585 102.935 81.5582 101.196 82.6217 99.558C83.7251 97.9184 85.1795 96.5869 86.9849 95.5632C88.7903 94.5396 90.7723 93.9901 92.931 93.9147C96.0091 93.8072 98.7305 94.3726 101.095 95.6108C103.5 96.8477 105.404 98.6423 106.807 100.995C108.208 103.307 108.963 106.003 109.07 109.081C109.169 111.919 108.561 114.562 107.246 117.009C105.929 119.417 104.076 121.382 101.688 122.907C99.3385 124.39 96.6246 125.185 93.5464 125.292ZM93.2658 117.257C94.7449 117.206 96.0323 116.82 97.1279 116.102C98.262 115.342 99.1287 114.371 99.7278 113.189C100.327 112.008 100.603 110.737 100.555 109.378C100.506 107.979 100.142 106.711 99.4619 105.574C98.7804 104.397 97.8481 103.489 96.6651 102.85C95.5221 102.209 94.211 101.915 92.7319 101.967C91.2928 102.017 90.0054 102.402 88.8699 103.122C87.7743 103.841 86.9076 104.812 86.2699 106.035C85.6708 107.216 85.3957 108.507 85.4445 109.906C85.492 111.265 85.8558 112.513 86.5358 113.65C87.2559 114.785 88.1882 115.694 89.3326 116.374C90.5156 117.013 91.8267 117.308 93.2658 117.257ZM129.994 123.96C126.916 124.067 124.114 123.504 121.59 122.272C119.104 120.998 117.12 119.206 115.638 116.896C114.156 114.547 113.359 111.793 113.249 108.635C113.15 105.796 113.698 103.176 114.895 100.772C116.131 98.3278 117.883 96.3654 120.153 94.8853C122.421 93.3652 125.075 92.5521 128.113 92.446C131.271 92.3357 133.974 92.9418 136.221 94.2641C138.467 95.5465 140.21 97.3068 141.449 99.5449C142.727 101.782 143.414 104.259 143.509 106.978L143.597 109.496L120.092 110.317L121.337 108.172C121.316 109.854 121.648 111.343 122.334 112.64C123.06 113.935 124.035 114.942 125.261 115.66C126.526 116.336 127.997 116.645 129.676 116.586C131.275 116.53 132.701 116.1 133.954 115.296C135.246 114.49 136.209 113.396 136.841 112.013L143.492 115.083C142.306 117.806 140.54 119.949 138.193 121.512C135.885 123.033 133.152 123.849 129.994 123.96ZM121.725 105.517L134.977 105.054C134.821 104.019 134.429 103.112 133.801 102.334C133.212 101.514 132.45 100.9 131.516 100.492C130.579 100.045 129.512 99.8417 128.312 99.8836C127.073 99.9268 125.982 100.205 125.04 100.718C124.137 101.23 123.4 101.916 122.83 102.777C122.298 103.596 121.93 104.509 121.725 105.517ZM178.879 122.312C175.761 122.421 173.103 121.954 170.905 120.91C168.746 119.825 167.008 118.204 165.692 116.049L171.865 112.291C172.586 113.467 173.456 114.317 174.475 114.842C175.493 115.326 176.741 115.543 178.22 115.491C179.14 115.459 179.916 115.332 180.548 115.11C181.219 114.846 181.728 114.508 182.074 114.096C182.458 113.642 182.64 113.116 182.619 112.516C182.591 111.716 182.171 111.151 181.359 110.819C180.546 110.447 179.515 110.163 178.267 109.966C177.06 109.768 175.751 109.534 174.34 109.263C172.93 108.992 171.595 108.578 170.335 108.022C169.075 107.466 168.025 106.642 167.187 105.55C166.387 104.418 165.953 102.892 165.886 100.973C165.823 99.174 166.246 97.5383 167.155 96.0656C168.105 94.5916 169.464 93.4035 171.234 92.5011C173.003 91.5988 175.107 91.1051 177.546 91.0199C179.704 90.9446 181.574 91.1795 183.154 91.7247C184.734 92.2699 186.06 93.004 187.133 93.9271C188.246 94.8489 189.122 95.8789 189.762 97.0172L183.59 100.775C183.112 99.711 182.345 98.9373 181.287 98.4539C180.27 97.9691 179.162 97.7477 177.962 97.7895C177.283 97.8133 176.667 97.9548 176.116 98.2142C175.563 98.4337 175.134 98.7488 174.828 99.1598C174.521 99.5307 174.376 99.976 174.395 100.496C174.422 101.295 174.824 101.902 175.599 102.315C176.412 102.687 177.443 102.971 178.69 103.167C179.938 103.364 181.267 103.598 182.677 103.869C184.088 104.14 185.404 104.574 186.625 105.172C187.885 105.728 188.935 106.552 189.773 107.643C190.612 108.735 191.063 110.2 191.128 112.039C191.197 114.038 190.678 115.797 189.571 117.316C188.462 118.796 186.962 119.989 185.073 120.895C183.182 121.762 181.117 122.234 178.879 122.312ZM210.534 121.147C207.656 121.248 205.093 120.637 202.846 119.314C200.597 117.952 198.792 116.114 197.43 113.8C196.107 111.445 195.395 108.828 195.295 105.95C195.196 103.111 195.804 100.488 197.121 98.0811C198.477 95.6323 200.329 93.6664 202.679 92.1835C205.067 90.6592 207.78 89.8441 210.818 89.738C213.897 89.6305 216.679 90.2337 219.167 91.5477C221.653 92.8217 223.636 94.6136 225.118 96.9233C226.598 99.193 227.39 101.827 227.495 104.825L228.017 119.756L219.921 120.039L219.547 109.305L222.1 108.496C222.181 110.814 221.755 112.93 220.821 114.844C219.886 116.718 218.557 118.225 216.836 119.366C215.113 120.467 213.013 121.06 210.534 121.147ZM211.635 113.124C213.114 113.072 214.402 112.687 215.497 111.968C216.631 111.208 217.498 110.237 218.097 109.056C218.736 107.873 219.031 106.582 218.982 105.182C218.934 103.783 218.549 102.516 217.829 101.38C217.149 100.243 216.217 99.3554 215.034 98.7163C213.89 98.0358 212.578 97.7214 211.099 97.7731C209.66 97.8233 208.373 98.2285 207.239 98.9885C206.144 99.7072 205.276 100.658 204.637 101.841C204.038 103.023 203.763 104.313 203.812 105.712C203.861 107.111 204.225 108.379 204.905 109.516C205.625 110.652 206.557 111.56 207.702 112.24C208.885 112.88 210.196 113.174 211.635 113.124ZM246.837 119.099L238.322 119.396L237.231 88.1552C237.147 85.7567 237.551 83.5812 238.444 81.6289C239.336 79.6766 240.722 78.1073 242.602 76.9209C244.482 75.7346 246.861 75.0912 249.739 74.9907C250.738 74.9558 251.721 75.0215 252.688 75.1879C253.653 75.3143 254.521 75.5241 255.291 75.8174L255.566 83.6726C254.871 83.2566 254.1 82.9633 253.253 82.7928C252.407 82.6222 251.584 82.5509 250.785 82.5788C249.185 82.6347 247.921 83.0991 246.991 83.9721C246.099 84.8037 245.683 86.059 245.741 87.738L246.837 119.099ZM255.526 96.2817L232.26 97.0942L232.009 89.8985L255.274 89.0861L255.526 96.2817ZM275.101 118.892C272.022 119 269.221 118.437 266.697 117.205C264.211 115.931 262.227 114.139 260.745 111.829C259.262 109.479 258.466 106.725 258.356 103.567C258.256 100.729 258.805 98.1084 260.002 95.7051C261.238 93.2605 262.99 91.2982 265.26 89.818C267.528 88.2979 270.181 87.4849 273.22 87.3788C276.378 87.2685 279.08 87.8745 281.328 89.1969C283.574 90.4793 285.317 92.2395 286.555 94.4777C287.834 96.7144 288.521 99.1919 288.616 101.91L288.704 104.429L265.198 105.25L266.444 103.105C266.423 104.787 266.755 106.276 267.441 107.573C268.166 108.868 269.142 109.875 270.368 110.592C271.632 111.269 273.104 111.578 274.783 111.519C276.382 111.463 277.808 111.033 279.061 110.229C280.353 109.423 281.316 108.329 281.948 106.946L288.599 110.016C287.413 112.739 285.647 114.882 283.3 116.445C280.992 117.966 278.259 118.782 275.101 118.892ZM266.832 100.45L280.084 99.9869C279.928 98.9517 279.536 98.0448 278.908 97.2663C278.319 96.4463 277.557 95.8325 276.622 95.4249C275.686 94.9773 274.619 94.7744 273.419 94.8163C272.18 94.8596 271.089 95.1378 270.146 95.6511C269.244 96.1629 268.507 96.849 267.937 97.7094C267.405 98.5285 267.037 99.4419 266.832 100.45Z" fill="white"/>
<path d="M343.613 85.003C346.18 84.9133 348.188 82.7595 348.099 80.1923C348.009 77.6251 345.855 75.6167 343.288 75.7063C340.721 75.796 338.712 77.9498 338.802 80.517C338.892 83.0842 341.045 85.0926 343.613 85.003Z" fill="#DC0028"/>
<path d="M351.282 87.8703C353.16 89.6222 356.104 89.5195 357.855 87.6408C359.607 85.7621 359.505 82.8189 357.626 81.067C355.747 79.3152 352.804 79.4179 351.052 81.2966C349.3 83.1753 349.403 86.1184 351.282 87.8703Z" fill="#DC0028"/>
<path d="M333.295 96.0675C333.384 98.6347 331.376 100.788 328.809 100.878C326.242 100.968 324.088 98.9593 323.998 96.3921C323.909 93.8249 325.917 91.6711 328.484 91.5815C331.051 91.4918 333.205 93.5003 333.295 96.0675Z" fill="#DC0028"/>
<path d="M329.588 88.6279C331.467 90.3798 334.41 90.277 336.162 88.3983C337.914 86.5196 337.811 83.5765 335.933 81.8246C334.054 80.0727 331.111 80.1755 329.359 82.0542C327.607 83.9328 327.71 86.876 329.588 88.6279Z" fill="#DC0028"/>
<path d="M363.974 94.9961C364.063 97.5633 362.055 99.7171 359.488 99.8068C356.921 99.8964 354.767 97.888 354.677 95.3208C354.587 92.7536 356.596 90.5998 359.163 90.5101C361.73 90.4205 363.884 92.4289 363.974 94.9961Z" fill="#DC0028"/>
<path d="M352.039 109.564C353.918 111.316 356.861 111.213 358.613 109.334C360.365 107.455 360.262 104.512 358.383 102.76C356.505 101.008 353.562 101.111 351.81 102.99C350.058 104.869 350.161 107.812 352.039 109.564Z" fill="#DC0028"/>
<path d="M349.17 110.871C349.26 113.438 347.251 115.592 344.684 115.682C342.117 115.772 339.963 113.763 339.873 111.196C339.784 108.629 341.792 106.475 344.359 106.385C346.927 106.296 349.08 108.304 349.17 110.871Z" fill="#DC0028"/>
<path d="M330.346 110.321C332.225 112.073 335.168 111.97 336.92 110.092C338.672 108.213 338.569 105.27 336.69 103.518C334.812 101.766 331.868 101.869 330.116 103.747C328.365 105.626 328.467 108.569 330.346 110.321Z" fill="#DC0028"/>
<path d="M416.35 114.02C413.272 114.127 410.489 113.544 408.004 112.27C405.558 110.995 403.594 109.202 402.112 106.892C400.631 104.583 399.838 101.929 399.733 98.9306L398.736 70.388L407.251 70.0907L408.038 92.6369L403.926 93.501C403.862 91.6621 404.361 89.9236 405.425 88.2855C406.528 86.646 407.983 85.3144 409.788 84.2908C411.594 83.2672 413.576 82.7176 415.734 82.6423C418.812 82.5348 421.534 83.1001 423.898 84.3384C426.303 85.5752 428.207 87.3699 429.61 89.7223C431.011 92.0348 431.766 94.7301 431.873 97.8083C431.972 100.647 431.364 103.289 430.049 105.737C428.732 108.144 426.88 110.11 424.491 111.634C422.142 113.117 419.428 113.912 416.35 114.02ZM416.069 105.985C417.548 105.933 418.836 105.548 419.931 104.829C421.065 104.069 421.932 103.098 422.531 101.917C423.13 100.735 423.406 99.4648 423.359 98.1056C423.31 96.7065 422.945 95.4384 422.265 94.3014C421.584 93.1245 420.651 92.2165 419.468 91.5774C418.325 90.9369 417.014 90.6425 415.535 90.6941C414.096 90.7444 412.809 91.1295 411.673 91.8496C410.577 92.5683 409.711 93.5391 409.073 94.7621C408.474 95.9437 408.199 97.2341 408.248 98.6333C408.295 99.9925 408.659 101.241 409.339 102.377C410.059 103.513 410.991 104.421 412.136 105.102C413.319 105.741 414.63 106.035 416.069 105.985ZM452.797 112.687C449.719 112.795 446.917 112.232 444.393 110.999C441.907 109.725 439.923 107.933 438.442 105.624C436.959 103.274 436.162 100.52 436.052 97.3622C435.953 94.5239 436.502 91.9031 437.698 89.4999C438.934 87.0553 440.687 85.0929 442.956 83.6128C445.225 82.0927 447.878 81.2796 450.916 81.1735C454.074 81.0633 456.777 81.6693 459.024 82.9917C461.27 84.2741 463.013 86.0343 464.252 88.2725C465.531 90.5092 466.218 92.9867 466.312 95.7051L466.4 98.2235L442.895 99.0444L444.141 96.8996C444.119 98.5813 444.452 100.071 445.137 101.368C445.863 102.663 446.839 103.67 448.064 104.387C449.329 105.063 450.8 105.372 452.479 105.314C454.078 105.258 455.504 104.828 456.757 104.024C458.05 103.218 459.012 102.124 459.644 100.741L466.295 103.811C465.11 106.534 463.343 108.677 460.996 110.239C458.688 111.761 455.955 112.577 452.797 112.687ZM444.528 94.2444L457.78 93.7817C457.624 92.7465 457.232 91.8396 456.604 91.061C456.016 90.2411 455.254 89.6273 454.319 89.2197C453.383 88.7721 452.315 88.5692 451.116 88.6111C449.876 88.6544 448.785 88.9326 447.843 89.4458C446.94 89.9577 446.204 90.6438 445.633 91.5042C445.102 92.3233 444.733 93.2367 444.528 94.2444ZM501.682 111.04C498.564 111.149 495.906 110.681 493.708 109.637C491.549 108.552 489.811 106.932 488.495 104.776L494.668 101.019C495.389 102.194 496.26 103.044 497.278 103.569C498.296 104.054 499.544 104.271 501.023 104.219C501.943 104.187 502.719 104.06 503.352 103.837C504.023 103.574 504.531 103.236 504.877 102.824C505.261 102.37 505.443 101.843 505.422 101.244C505.394 100.444 504.974 99.8783 504.162 99.5465C503.349 99.1746 502.318 98.8904 501.071 98.6938C499.863 98.4959 498.554 98.2614 497.144 97.9905C495.733 97.7195 494.398 97.3059 493.138 96.7495C491.878 96.1931 490.828 95.3693 489.99 94.2779C489.19 93.1451 488.756 91.6193 488.689 89.7005C488.626 87.9016 489.05 86.2658 489.959 84.7932C490.908 83.3192 492.267 82.131 494.037 81.2287C495.806 80.3264 497.91 79.8326 500.349 79.7475C502.508 79.6721 504.377 79.907 505.957 80.4522C507.537 80.9974 508.863 81.7315 509.936 82.6547C511.049 83.5764 511.926 84.6064 512.566 85.7448L506.393 89.5025C505.916 88.4385 505.148 87.6648 504.091 87.1814C503.073 86.6966 501.965 86.4752 500.765 86.5171C500.086 86.5408 499.47 86.6824 498.919 86.9418C498.366 87.1612 497.937 87.4764 497.631 87.8873C497.324 88.2582 497.18 88.7036 497.198 89.2232C497.226 90.0227 497.627 90.6291 498.402 91.0423C499.215 91.4142 500.246 91.6984 501.494 91.8949C502.741 92.0915 504.07 92.3253 505.48 92.5962C506.891 92.8672 508.207 93.3015 509.428 93.8992C510.689 94.4556 511.738 95.2795 512.577 96.3709C513.415 97.4623 513.867 98.9274 513.931 100.766C514.001 102.765 513.482 104.524 512.374 106.044C511.265 107.523 509.766 108.716 507.876 109.623C505.985 110.49 503.92 110.962 501.682 111.04ZM534.837 109.822C531.759 109.93 528.957 109.367 526.433 108.134C523.947 106.86 521.963 105.069 520.481 102.759C518.999 100.409 518.202 97.6553 518.092 94.4973C517.993 91.659 518.541 89.0382 519.738 86.635C520.974 84.1904 522.726 82.228 524.996 80.7479C527.264 79.2278 529.918 78.4147 532.956 78.3087C536.114 78.1984 538.817 78.8044 541.064 80.1268C543.31 81.4092 545.053 83.1694 546.292 85.4076C547.571 87.6443 548.257 90.1218 548.352 92.8402L548.44 95.3586L524.935 96.1795L526.18 94.0347C526.159 95.7165 526.491 97.2058 527.177 98.5026C527.903 99.7981 528.878 100.805 530.104 101.522C531.369 102.199 532.84 102.507 534.519 102.449C536.118 102.393 537.544 101.963 538.797 101.159C540.089 100.353 541.052 99.2589 541.684 97.876L548.335 100.946C547.149 103.669 545.383 105.812 543.036 107.375C540.728 108.896 537.995 109.712 534.837 109.822ZM526.568 91.3795L539.82 90.9168C539.664 89.8816 539.272 88.9747 538.644 88.1961C538.055 87.3762 537.293 86.7624 536.359 86.3548C535.422 85.9072 534.355 85.7043 533.155 85.7462C531.916 85.7895 530.825 86.0677 529.883 86.5809C528.98 87.0928 528.243 87.7789 527.673 88.6393C527.141 89.4584 526.773 90.3718 526.568 91.3795ZM569.854 108.599C566.776 108.707 563.975 108.144 561.45 106.912C558.964 105.638 556.981 103.846 555.499 101.536C554.016 99.1864 553.22 96.4325 553.109 93.2744C553.01 90.4361 553.559 87.8154 554.756 85.4122C555.991 82.9676 557.744 81.0052 560.014 79.5251C562.282 78.005 564.935 77.1919 567.974 77.0858C571.132 76.9755 573.834 77.5816 576.082 78.9039C578.328 80.1863 580.071 81.9466 581.309 84.1847C582.588 86.4214 583.275 88.899 583.37 91.6173L583.458 94.1358L559.952 94.9566L561.198 92.8118C561.177 94.4936 561.509 95.9829 562.195 97.2798C562.92 98.5752 563.896 99.5818 565.122 100.299C566.386 100.976 567.858 101.285 569.537 101.226C571.136 101.17 572.562 100.74 573.815 99.9359C575.107 99.1303 576.07 98.036 576.702 96.6531L583.353 99.7229C582.167 102.446 580.401 104.589 578.054 106.152C575.746 107.673 573.013 108.489 569.854 108.599ZM561.586 90.1567L574.838 89.6939C574.681 88.6587 574.29 87.7519 573.662 86.9733C573.073 86.1534 572.311 85.5396 571.376 85.1319C570.44 84.6843 569.372 84.4815 568.173 84.5234C566.934 84.5666 565.843 84.8449 564.9 85.3581C563.998 85.8699 563.261 86.556 562.691 87.4165C562.159 88.2355 561.791 89.1489 561.586 90.1567ZM604.848 84.3233C603.249 84.3792 601.943 84.825 600.932 85.6608C599.919 86.4566 599.195 87.5025 598.76 88.7985C598.324 90.0545 598.133 91.462 598.187 93.0211L598.669 106.813L590.154 107.11L589.637 92.299C589.536 89.4208 590.004 86.7828 591.041 84.3852C592.117 81.9462 593.77 79.9873 595.999 78.5086C598.228 76.9899 601.081 76.1698 604.559 76.0484C608.037 75.9269 610.94 76.546 613.269 77.9055C615.636 79.2237 617.441 81.0418 618.682 83.3599C619.924 85.678 620.596 88.2961 620.698 91.2144L621.215 106.025L612.7 106.323L612.219 92.5311C612.166 91.012 611.857 89.6219 611.292 88.3609C610.728 87.0998 609.913 86.1076 608.847 85.3844C607.82 84.6198 606.487 84.2661 604.848 84.3233Z" fill="white"/>
<path d="M676.41 73.3809C678.977 73.2912 680.985 71.1374 680.896 68.5702C680.806 66.003 678.652 63.9946 676.085 64.0842C673.518 64.1739 671.509 66.3277 671.599 68.8949C671.689 71.4621 673.843 73.4705 676.41 73.3809Z" fill="#DC0028"/>
<path d="M684.079 76.2483C685.958 78.0002 688.901 77.8974 690.653 76.0187C692.404 74.14 692.302 71.1969 690.423 69.445C688.544 67.6931 685.601 67.7959 683.849 69.6745C682.097 71.5532 682.2 74.4964 684.079 76.2483Z" fill="#DC0028"/>
<path d="M666.092 84.4454C666.182 87.0126 664.173 89.1664 661.606 89.256C659.039 89.3457 656.885 87.3372 656.795 84.77C656.706 82.2028 658.714 80.049 661.281 79.9594C663.848 79.8697 666.002 81.8782 666.092 84.4454Z" fill="#DC0028"/>
<path d="M662.386 77.0058C664.264 78.7577 667.207 78.6549 668.959 76.7763C670.711 74.8976 670.608 71.9544 668.73 70.2025C666.851 68.4506 663.908 68.5534 662.156 70.4321C660.404 72.3108 660.507 75.2539 662.386 77.0058Z" fill="#DC0028"/>
<path d="M696.771 83.3741C696.861 85.9413 694.852 88.0951 692.285 88.1847C689.718 88.2744 687.564 86.2659 687.474 83.6987C687.385 81.1315 689.393 78.9777 691.96 78.8881C694.527 78.7984 696.681 80.8069 696.771 83.3741Z" fill="#DC0028"/>
<path d="M684.836 97.9416C686.715 99.6935 689.658 99.5907 691.41 97.712C693.162 95.8333 693.059 92.8902 691.181 91.1383C689.302 89.3864 686.359 89.4892 684.607 91.3678C682.855 93.2465 682.958 96.1897 684.836 97.9416Z" fill="#DC0028"/>
<path d="M681.967 99.2492C682.057 101.816 680.048 103.97 677.481 104.06C674.914 104.15 672.76 102.141 672.67 99.5739C672.581 97.0067 674.589 94.8529 677.156 94.7632C679.724 94.6736 681.877 96.682 681.967 99.2492Z" fill="#DC0028"/>
<path d="M663.143 98.6991C665.022 100.451 667.965 100.348 669.717 98.4696C671.469 96.5909 671.366 93.6477 669.487 91.8958C667.609 90.1439 664.665 90.2467 662.914 92.1254C661.162 94.0041 661.264 96.9472 663.143 98.6991Z" fill="#DC0028"/>
<path d="M749.147 102.398C746.069 102.505 743.287 101.922 740.801 100.648C738.355 99.3726 736.391 97.5801 734.909 95.2704C733.428 92.9607 732.635 90.3067 732.53 87.3086L731.533 58.7659L740.048 58.4686L740.835 81.0149L736.723 81.8789C736.659 80.04 737.159 78.3015 738.222 76.6634C739.325 75.0239 740.78 73.6923 742.585 72.6687C744.391 71.6451 746.373 71.0956 748.531 71.0202C751.609 70.9127 754.331 71.4781 756.696 72.7163C759.1 73.9531 761.004 75.7478 762.407 78.1003C763.808 80.4128 764.563 83.1081 764.67 86.1862C764.77 89.0245 764.161 91.6673 762.846 94.1147C761.529 96.5221 759.677 98.488 757.288 100.012C754.939 101.495 752.225 102.29 749.147 102.398ZM748.866 94.3627C750.345 94.3111 751.633 93.9259 752.728 93.2072C753.862 92.4472 754.729 91.4764 755.328 90.2947C755.927 89.1131 756.203 87.8427 756.156 86.4835C756.107 85.0844 755.742 83.8163 755.062 82.6794C754.381 81.5024 753.448 80.5944 752.265 79.9553C751.122 79.3148 749.811 79.0204 748.332 79.072C746.893 79.1223 745.606 79.5075 744.47 80.2275C743.375 80.9462 742.508 81.917 741.87 83.14C741.271 84.3217 740.996 85.6121 741.045 87.0112C741.092 88.3704 741.456 89.6184 742.136 90.7554C742.856 91.891 743.789 92.799 744.933 93.4795C746.116 94.1186 747.427 94.413 748.866 94.3627ZM785.594 101.065C782.516 101.173 779.715 100.61 777.19 99.3773C774.704 98.1033 772.72 96.3114 771.239 94.0017C769.756 91.652 768.959 88.8982 768.849 85.7401C768.75 82.9018 769.299 80.2811 770.496 77.8778C771.731 75.4332 773.484 73.4709 775.753 71.9907C778.022 70.4707 780.675 69.6576 783.713 69.5515C786.871 69.4412 789.574 70.0472 791.821 71.3696C794.068 72.652 795.81 74.4123 797.049 76.6504C798.328 78.8871 799.015 81.3647 799.11 84.083L799.198 86.6015L775.692 87.4223L776.938 85.2775C776.916 86.9593 777.249 88.4486 777.934 89.7455C778.66 91.0409 779.636 92.0475 780.861 92.7651C782.126 93.4414 783.598 93.7502 785.277 93.6916C786.876 93.6358 788.301 93.2058 789.554 92.4015C790.847 91.5959 791.809 90.5017 792.441 89.1188L799.092 92.1885C797.907 94.9116 796.14 97.0545 793.794 98.6174C791.485 100.139 788.752 100.955 785.594 101.065ZM777.325 82.6224L790.577 82.1596C790.421 81.1244 790.029 80.2175 789.402 79.439C788.813 78.619 788.051 78.0052 787.116 77.5976C786.18 77.15 785.112 76.9472 783.913 76.989C782.674 77.0323 781.583 77.3106 780.64 77.8238C779.737 78.3356 779.001 79.0217 778.43 79.8821C777.899 80.7012 777.53 81.6146 777.325 82.6224ZM828.402 93.8667L818.482 69.418L827.537 69.1018L836.173 91.1938C836.092 91.1567 836.052 91.158 836.053 91.198C836.093 91.1966 836.113 91.1959 836.113 91.1959C836.112 91.156 836.072 91.1573 835.993 91.2001L843.067 68.5594L852.122 68.2432L843.812 93.3285C843.16 95.2725 842.21 96.7465 840.965 97.7506C839.719 98.7547 838.177 99.2888 836.338 99.3531C834.539 99.4159 832.943 98.9913 831.55 98.0794C830.198 97.166 829.148 95.7618 828.402 93.8667ZM857.236 68.0647L865.751 67.7673L866.787 97.4492L858.272 97.7466L857.236 68.0647ZM861.338 63.4787C860.379 63.5122 859.472 63.3237 858.617 62.9133C857.801 62.4615 857.139 61.8443 856.631 61.0615C856.162 60.2374 855.911 59.3456 855.877 58.3862C855.844 57.4268 856.033 56.5396 856.445 55.7247C856.897 54.9085 857.514 54.2465 858.297 53.7389C859.119 53.2299 860.01 52.9586 860.97 52.9251C861.929 52.8916 862.817 53.1008 863.633 53.5525C864.45 54.0043 865.092 54.6223 865.559 55.4065C866.067 56.1892 866.337 57.0603 866.371 58.0197C866.404 58.9791 866.196 59.887 865.746 60.7432C865.334 61.5581 864.737 62.2193 863.954 62.727C863.17 63.1946 862.298 63.4452 861.338 63.4787ZM886.771 97.5919C883.653 97.7008 880.995 97.2332 878.798 96.1893C876.638 95.104 874.901 93.4837 873.585 91.3283L879.757 87.5706C880.479 88.7461 881.349 89.5962 882.368 90.121C883.385 90.6058 884.634 90.8224 886.113 90.7707C887.032 90.7386 887.808 90.6114 888.441 90.3892C889.112 90.1256 889.621 89.7877 889.967 89.3754C890.351 88.9217 890.533 88.395 890.512 87.7954C890.484 86.9959 890.064 86.4302 889.252 86.0983C888.438 85.7265 887.408 85.4423 886.16 85.2457C884.952 85.0477 883.643 84.8133 882.233 84.5423C880.823 84.2714 879.488 83.8577 878.227 83.3013C876.967 82.745 875.918 81.9211 875.079 80.8297C874.279 79.6969 873.846 78.1711 873.779 76.2523C873.716 74.4534 874.139 72.8176 875.048 71.345C875.997 69.871 877.357 68.6828 879.126 67.7805C880.896 66.8782 883 66.3845 885.438 66.2993C887.597 66.2239 889.466 66.4589 891.046 67.004C892.626 67.5492 893.953 68.2834 895.026 69.2065C896.139 70.1282 897.015 71.1583 897.655 72.2966L891.483 76.0543C891.005 74.9903 890.238 74.2167 889.18 73.7333C888.163 73.2485 887.054 73.027 885.855 73.0689C885.175 73.0926 884.56 73.2342 884.009 73.4936C883.456 73.713 883.027 74.0282 882.721 74.4391C882.414 74.8101 882.269 75.2554 882.287 75.7751C882.315 76.5746 882.717 77.181 883.491 77.5942C884.305 77.966 885.335 78.2502 886.583 78.4468C887.831 78.6434 889.16 78.8771 890.57 79.1481C891.98 79.419 893.296 79.8534 894.518 80.4511C895.778 81.0074 896.827 81.8313 897.666 82.9227C898.505 84.0141 898.956 85.4793 899.02 87.3181C899.09 89.3169 898.571 91.0761 897.463 92.5957C896.354 94.0753 894.855 95.2683 892.966 96.1748C891.075 97.0414 889.01 97.5137 886.771 97.5919ZM905.371 66.3838L913.886 66.0864L914.922 95.7683L906.407 96.0657L905.371 66.3838ZM909.473 61.7978C908.514 61.8313 907.607 61.6428 906.752 61.2324C905.935 60.7806 905.274 60.1634 904.766 59.3806C904.297 58.5565 904.046 57.6647 904.012 56.7053C903.979 55.7459 904.168 54.8587 904.58 54.0438C905.031 53.2276 905.649 52.5656 906.431 52.058C907.254 51.549 908.145 51.2777 909.105 51.2442C910.064 51.2107 910.952 51.4199 911.768 51.8716C912.584 52.3234 913.226 52.9414 913.694 53.7256C914.202 54.5083 914.472 55.3794 914.506 56.3388C914.539 57.2982 914.331 58.2061 913.88 59.0623C913.469 59.8772 912.871 60.5384 912.089 61.0461C911.304 61.5137 910.433 61.7643 909.473 61.7978ZM939.343 95.756C936.265 95.8635 933.483 95.2802 930.997 94.0062C928.551 92.7308 926.587 90.9383 925.106 88.6286C923.624 86.3189 922.831 83.6649 922.727 80.6667L921.73 52.1241L930.245 51.8268L931.032 74.3731L926.92 75.2371C926.855 73.3982 927.355 71.6597 928.419 70.0216C929.522 68.3821 930.976 67.0505 932.782 66.0269C934.587 65.0033 936.569 64.4538 938.728 64.3784C941.806 64.2709 944.527 64.8363 946.892 66.0745C949.297 67.3113 951.2 69.106 952.603 71.4584C954.005 73.7709 954.76 76.4663 954.867 79.5444C954.966 82.3826 954.358 85.0255 953.043 87.4729C951.726 89.8803 949.873 91.8461 947.485 93.3704C945.135 94.8533 942.421 95.6485 939.343 95.756ZM939.063 87.7209C940.542 87.6693 941.829 87.2841 942.925 86.5654C944.059 85.8054 944.926 84.8345 945.525 83.6529C946.124 82.4713 946.4 81.2009 946.352 79.8417C946.303 78.4426 945.939 77.1745 945.259 76.0376C944.577 74.8606 943.645 73.9526 942.462 73.3135C941.319 72.673 940.008 72.3786 938.529 72.4302C937.09 72.4805 935.802 72.8657 934.667 73.5857C933.571 74.3044 932.705 75.2752 932.067 76.4982C931.468 77.6799 931.193 78.9703 931.241 80.3694C931.289 81.7286 931.653 82.9766 932.333 84.1136C933.053 85.2492 933.985 86.1572 935.13 86.8376C936.313 87.4767 937.624 87.7712 939.063 87.7209ZM960.758 50.7613L969.272 50.4639L970.786 93.8175L962.272 94.1148L960.758 50.7613ZM993.826 93.7934C990.748 93.9009 987.947 93.3383 985.422 92.1057C982.936 90.8316 980.953 89.0398 979.471 86.7301C977.988 84.3804 977.192 81.6265 977.081 78.4684C976.982 75.6302 977.531 73.0094 978.728 70.6062C979.963 68.1616 981.716 66.1992 983.986 64.7191C986.254 63.199 988.907 62.3859 991.946 62.2798C995.104 62.1696 997.806 62.7756 1000.05 64.098C1002.3 65.3804 1004.04 67.1406 1005.28 69.3787C1006.56 71.6155 1007.25 74.093 1007.34 76.8114L1007.43 79.3298L983.924 80.1507L985.17 78.0059C985.149 79.6876 985.481 81.177 986.167 82.4738C986.892 83.7693 987.868 84.7758 989.094 85.4935C990.358 86.1698 991.83 86.4786 993.509 86.42C995.108 86.3641 996.534 85.9341 997.787 85.1299C999.079 84.3243 1000.04 83.2301 1000.67 81.8471L1007.32 84.9169C1006.14 87.6399 1004.37 89.7829 1002.03 91.3457C999.718 92.8672 996.985 93.6831 993.826 93.7934ZM985.558 75.3507L998.81 74.888C998.654 73.8528 998.262 72.9459 997.634 72.1673C997.045 71.3474 996.283 70.7336 995.348 70.326C994.412 69.8784 993.344 69.6755 992.145 69.7174C990.906 69.7607 989.815 70.0389 988.872 70.5521C987.97 71.0639 987.233 71.7501 986.663 72.6105C986.131 73.4296 985.763 74.343 985.558 75.3507Z" fill="white"/>
<path d="M1062.17 59.9102C1064.74 59.8205 1066.75 57.6667 1066.66 55.0995C1066.57 52.5323 1064.42 50.5239 1061.85 50.6135C1059.28 50.7032 1057.27 52.857 1057.36 55.4242C1057.45 57.9914 1059.61 59.9998 1062.17 59.9102Z" fill="#DC0028"/>
<path d="M1069.84 62.7776C1071.72 64.5295 1074.67 64.4267 1076.42 62.548C1078.17 60.6693 1078.07 57.7262 1076.19 55.9743C1074.31 54.2224 1071.37 54.3252 1069.61 56.2038C1067.86 58.0825 1067.97 61.0257 1069.84 62.7776Z" fill="#DC0028"/>
<path d="M1051.86 70.9747C1051.95 73.5419 1049.94 75.6957 1047.37 75.7853C1044.8 75.875 1042.65 73.8665 1042.56 71.2993C1042.47 68.7321 1044.48 66.5783 1047.05 66.4887C1049.61 66.399 1051.77 68.4075 1051.86 70.9747Z" fill="#DC0028"/>
<path d="M1048.15 63.5351C1050.03 65.287 1052.97 65.1842 1054.72 63.3056C1056.48 61.4269 1056.37 58.4837 1054.49 56.7318C1052.62 54.9799 1049.67 55.0827 1047.92 56.9614C1046.17 58.8401 1046.27 61.7832 1048.15 63.5351Z" fill="#DC0028"/>
<path d="M1082.54 69.9034C1082.63 72.4706 1080.62 74.6244 1078.05 74.714C1075.48 74.8037 1073.33 72.7952 1073.24 70.228C1073.15 67.6608 1075.16 65.507 1077.73 65.4174C1080.29 65.3277 1082.45 67.3362 1082.54 69.9034Z" fill="#DC0028"/>
<path d="M1070.6 84.4709C1072.48 86.2228 1075.42 86.12 1077.18 84.2413C1078.93 82.3626 1078.82 79.4195 1076.95 77.6676C1075.07 75.9157 1072.12 76.0185 1070.37 77.8971C1068.62 79.7758 1068.72 82.719 1070.6 84.4709Z" fill="#DC0028"/>
<path d="M1067.73 85.7785C1067.82 88.3457 1065.81 90.4995 1063.25 90.5892C1060.68 90.6788 1058.52 88.6704 1058.44 86.1032C1058.35 83.536 1060.35 81.3822 1062.92 81.2925C1065.49 81.2029 1067.64 83.2113 1067.73 85.7785Z" fill="#DC0028"/>
<path d="M1048.91 85.2284C1050.79 86.9803 1053.73 86.8775 1055.48 84.9989C1057.23 83.1202 1057.13 80.177 1055.25 78.4251C1053.37 76.6732 1050.43 76.776 1048.68 78.6547C1046.93 80.5334 1047.03 83.4765 1048.91 85.2284Z" fill="#DC0028"/>
<path d="M1134.91 88.9271C1131.83 89.0346 1129.05 88.4514 1126.57 87.1773C1124.12 85.9019 1122.16 84.1094 1120.67 81.7997C1119.19 79.49 1118.4 76.836 1118.29 73.8379L1117.3 45.2952L1125.81 44.9979L1126.6 67.5442L1122.49 68.4082C1122.42 66.5693 1122.92 64.8308 1123.99 63.1927C1125.09 61.5532 1126.54 60.2216 1128.35 59.198C1130.16 58.1744 1132.14 57.6249 1134.3 57.5495C1137.37 57.442 1140.1 58.0074 1142.46 59.2456C1144.87 60.4824 1146.77 62.2771 1148.17 64.6296C1149.57 66.942 1150.33 69.6374 1150.44 72.7155C1150.53 75.5538 1149.93 78.1966 1148.61 80.644C1147.29 83.0514 1145.44 85.0173 1143.05 86.5415C1140.7 88.0244 1137.99 88.8196 1134.91 88.9271ZM1134.63 80.892C1136.11 80.8404 1137.4 80.4552 1138.49 79.7365C1139.63 78.9765 1140.49 78.0057 1141.09 76.824C1141.69 75.6424 1141.97 74.372 1141.92 73.0128C1141.87 71.6137 1141.51 70.3456 1140.83 69.2087C1140.15 68.0317 1139.21 67.1237 1138.03 66.4846C1136.89 65.8441 1135.58 65.5497 1134.1 65.6013C1132.66 65.6516 1131.37 66.0368 1130.24 66.7568C1129.14 67.4755 1128.27 68.4463 1127.64 69.6693C1127.04 70.851 1126.76 72.1414 1126.81 73.5405C1126.86 74.8997 1127.22 76.1477 1127.9 77.2847C1128.62 78.4203 1129.55 79.3283 1130.7 80.0088C1131.88 80.6479 1133.19 80.9423 1134.63 80.892ZM1171.36 87.5943C1168.28 87.7018 1165.48 87.1392 1162.95 85.9066C1160.47 84.6326 1158.49 82.8407 1157 80.531C1155.52 78.1813 1154.72 75.4275 1154.61 72.2694C1154.51 69.4311 1155.06 66.8104 1156.26 64.4071C1157.5 61.9625 1159.25 60.0002 1161.52 58.52C1163.79 57 1166.44 56.1869 1169.48 56.0808C1172.64 55.9705 1175.34 56.5765 1177.59 57.8989C1179.83 59.1813 1181.57 60.9416 1182.81 63.1797C1184.09 65.4164 1184.78 67.8939 1184.87 70.6123L1184.96 73.1308L1161.46 73.9516L1162.7 71.8068C1162.68 73.4886 1163.01 74.9779 1163.7 76.2747C1164.42 77.5702 1165.4 78.5768 1166.63 79.2944C1167.89 79.9707 1169.36 80.2795 1171.04 80.2209C1172.64 80.1651 1174.07 79.7351 1175.32 78.9308C1176.61 78.1252 1177.57 77.031 1178.21 75.6481L1184.86 78.7178C1183.67 81.4409 1181.91 83.5838 1179.56 85.1467C1177.25 86.6682 1174.52 87.484 1171.36 87.5943ZM1163.09 69.1517L1176.34 68.6889C1176.19 67.6537 1175.79 66.7468 1175.17 65.9683C1174.58 65.1483 1173.82 64.5345 1172.88 64.1269C1171.94 63.6793 1170.88 63.4765 1169.68 63.5183C1168.44 63.5616 1167.35 63.8399 1166.4 64.3531C1165.5 64.8649 1164.77 65.551 1164.2 66.4114C1163.66 67.2305 1163.3 68.1439 1163.09 69.1517ZM1220.24 85.9473C1217.13 86.0561 1214.47 85.5886 1212.27 84.5447C1210.11 83.4594 1208.37 81.839 1207.06 79.6837L1213.23 75.9259C1213.95 77.1015 1214.82 77.9516 1215.84 78.4764C1216.86 78.9612 1218.11 79.1777 1219.59 79.1261C1220.5 79.094 1221.28 78.9668 1221.91 78.7446C1222.58 78.481 1223.09 78.1431 1223.44 77.7307C1223.82 77.2771 1224.01 76.7504 1223.98 76.1508C1223.96 75.3512 1223.54 74.7856 1222.72 74.4537C1221.91 74.0819 1220.88 73.7977 1219.63 73.6011C1218.42 73.4031 1217.12 73.1686 1215.71 72.8977C1214.3 72.6267 1212.96 72.2131 1211.7 71.6567C1210.44 71.1004 1209.39 70.2765 1208.55 69.1851C1207.75 68.0523 1207.32 66.5265 1207.25 64.6077C1207.19 62.8088 1207.61 61.173 1208.52 59.7004C1209.47 58.2264 1210.83 57.0382 1212.6 56.1359C1214.37 55.2336 1216.47 54.7399 1218.91 54.6547C1221.07 54.5793 1222.94 54.8142 1224.52 55.3594C1226.1 55.9046 1227.43 56.6388 1228.5 57.5619C1229.61 58.4836 1230.49 59.5137 1231.13 60.652L1224.96 64.4097C1224.48 63.3457 1223.71 62.572 1222.65 62.0887C1221.64 61.6039 1220.53 61.3824 1219.33 61.4243C1218.65 61.448 1218.03 61.5896 1217.48 61.849C1216.93 62.0684 1216.5 62.3836 1216.19 62.7945C1215.89 63.1655 1215.74 63.6108 1215.76 64.1305C1215.79 64.93 1216.19 65.5363 1216.96 65.9495C1217.78 66.3214 1218.81 66.6056 1220.06 66.8022C1221.3 66.9987 1222.63 67.2325 1224.04 67.5035C1225.45 67.7744 1226.77 68.2087 1227.99 68.8065C1229.25 69.3628 1230.3 70.1867 1231.14 71.2781C1231.98 72.3695 1232.43 73.8346 1232.49 75.6735C1232.56 77.6723 1232.04 79.4315 1230.94 80.9511C1229.83 82.4307 1228.33 83.6237 1226.44 84.5302C1224.55 85.3967 1222.48 85.8691 1220.24 85.9473ZM1251.9 84.7818C1249.02 84.8823 1246.46 84.2714 1244.21 82.949C1241.96 81.5866 1240.16 79.7485 1238.8 77.4346C1237.47 75.0794 1236.76 72.4626 1236.66 69.5844C1236.56 66.7461 1237.17 64.1233 1238.49 61.7158C1239.84 59.267 1241.69 57.3012 1244.04 55.8183C1246.43 54.294 1249.15 53.4788 1252.18 53.3727C1255.26 53.2652 1258.04 53.8685 1260.53 55.1825C1263.02 56.4565 1265 58.2484 1266.48 60.5581C1267.96 62.8278 1268.76 65.4617 1268.86 68.4599L1269.38 83.3908L1261.29 83.6735L1260.91 72.94L1263.47 72.1304C1263.55 74.449 1263.12 76.5652 1262.19 78.479C1261.25 80.3527 1259.92 81.86 1258.2 83.0008C1256.48 84.1016 1254.38 84.6952 1251.9 84.7818ZM1253 76.7585C1254.48 76.7068 1255.77 76.3217 1256.86 75.603C1258 74.8429 1258.86 73.8721 1259.46 72.6905C1260.1 71.5075 1260.4 70.2164 1260.35 68.8172C1260.3 67.4181 1259.91 66.1507 1259.19 65.0152C1258.51 63.8782 1257.58 62.9902 1256.4 62.3511C1255.26 61.6706 1253.94 61.3562 1252.46 61.4078C1251.03 61.4581 1249.74 61.8632 1248.6 62.6233C1247.51 63.342 1246.64 64.2928 1246 65.4758C1245.4 66.6575 1245.13 67.9479 1245.18 69.347C1245.23 70.7461 1245.59 72.0142 1246.27 73.1512C1246.99 74.2867 1247.92 75.1947 1249.07 75.8752C1250.25 76.5143 1251.56 76.8087 1253 76.7585ZM1288.2 82.7336L1279.69 83.0309L1278.6 51.79C1278.51 49.3915 1278.92 47.216 1279.81 45.2637C1280.7 43.3113 1282.09 41.742 1283.97 40.5557C1285.85 39.3694 1288.23 38.7259 1291.1 38.6254C1292.1 38.5905 1293.09 38.6563 1294.05 38.8227C1295.02 38.9491 1295.89 39.1589 1296.66 39.4522L1296.93 47.3074C1296.24 46.8914 1295.47 46.5981 1294.62 46.4275C1293.77 46.257 1292.95 46.1857 1292.15 46.2136C1290.55 46.2694 1289.29 46.7338 1288.36 47.6068C1287.46 48.4384 1287.05 49.6937 1287.11 51.3727L1288.2 82.7336ZM1296.89 59.9165L1273.63 60.7289L1273.37 53.5333L1296.64 52.7208L1296.89 59.9165ZM1316.47 82.5271C1313.39 82.6346 1310.59 82.072 1308.06 80.8394C1305.58 79.5653 1303.59 77.7735 1302.11 75.4638C1300.63 73.1141 1299.83 70.3602 1299.72 67.2021C1299.62 64.3639 1300.17 61.7431 1301.37 59.3399C1302.6 56.8953 1304.36 54.9329 1306.63 53.4528C1308.89 51.9327 1311.55 51.1196 1314.58 51.0135C1317.74 50.9032 1320.45 51.5093 1322.69 52.8317C1324.94 54.114 1326.68 55.8743 1327.92 58.1124C1329.2 60.3492 1329.89 62.8267 1329.98 65.545L1330.07 68.0635L1306.56 68.8844L1307.81 66.7396C1307.79 68.4213 1308.12 69.9106 1308.81 71.2075C1309.53 72.503 1310.51 73.5095 1311.73 74.2272C1313 74.9035 1314.47 75.2123 1316.15 75.1537C1317.75 75.0978 1319.17 74.6678 1320.43 73.8636C1321.72 73.058 1322.68 71.9637 1323.31 70.5808L1329.96 73.6506C1328.78 76.3736 1327.01 78.5166 1324.67 80.0794C1322.36 81.6009 1319.62 82.4168 1316.47 82.5271ZM1308.2 64.0844L1321.45 63.6217C1321.29 62.5865 1320.9 61.6796 1320.27 60.901C1319.68 60.0811 1318.92 59.4673 1317.99 59.0597C1317.05 58.6121 1315.98 58.4092 1314.78 58.4511C1313.55 58.4944 1312.45 58.7726 1311.51 59.2858C1310.61 59.7976 1309.87 60.4838 1309.3 61.3442C1308.77 62.1632 1308.4 63.0767 1308.2 64.0844Z" fill="white"/>
<path d="M1384.98 48.6377C1387.55 48.5481 1389.55 46.3943 1389.46 43.8271C1389.37 41.2599 1387.22 39.2514 1384.65 39.3411C1382.09 39.4307 1380.08 41.5845 1380.17 44.1517C1380.26 46.7189 1382.41 48.7274 1384.98 48.6377Z" fill="#DC0028"/>
<path d="M1392.65 51.5051C1394.53 53.257 1397.47 53.1542 1399.22 51.2755C1400.97 49.3969 1400.87 46.4537 1398.99 44.7018C1397.11 42.9499 1394.17 43.0527 1392.42 44.9314C1390.67 46.8101 1390.77 49.7532 1392.65 51.5051Z" fill="#DC0028"/>
<path d="M1374.66 59.7022C1374.75 62.2694 1372.74 64.4232 1370.17 64.5129C1367.61 64.6025 1365.45 62.5941 1365.36 60.0269C1365.27 57.4597 1367.28 55.3059 1369.85 55.2162C1372.42 55.1266 1374.57 57.135 1374.66 59.7022Z" fill="#DC0028"/>
<path d="M1370.95 52.2627C1372.83 54.0145 1375.78 53.9118 1377.53 52.0331C1379.28 50.1544 1379.18 47.2113 1377.3 45.4594C1375.42 43.7075 1372.48 43.8102 1370.72 45.6889C1368.97 47.5676 1369.08 50.5108 1370.95 52.2627Z" fill="#DC0028"/>
<path d="M1405.34 58.6309C1405.43 61.1981 1403.42 63.3519 1400.85 63.4416C1398.29 63.5312 1396.13 61.5227 1396.04 58.9555C1395.95 56.3883 1397.96 54.2345 1400.53 54.1449C1403.1 54.0552 1405.25 56.0637 1405.34 58.6309Z" fill="#DC0028"/>
<path d="M1393.4 73.1984C1395.28 74.9503 1398.23 74.8475 1399.98 72.9689C1401.73 71.0902 1401.63 68.147 1399.75 66.3951C1397.87 64.6432 1394.93 64.746 1393.18 66.6247C1391.42 68.5034 1391.53 71.4465 1393.4 73.1984Z" fill="#DC0028"/>
<path d="M1390.54 74.5061C1390.62 77.0733 1388.62 79.2271 1386.05 79.3167C1383.48 79.4064 1381.33 77.3979 1381.24 74.8307C1381.15 72.2635 1383.16 70.1097 1385.72 70.02C1388.29 69.9304 1390.45 71.9389 1390.54 74.5061Z" fill="#DC0028"/>
<path d="M1371.71 73.956C1373.59 75.7079 1376.53 75.6051 1378.29 73.7264C1380.04 71.8477 1379.93 68.9046 1378.06 67.1527C1376.18 65.4008 1373.23 65.5036 1371.48 67.3822C1369.73 69.2609 1369.83 72.2041 1371.71 73.956Z" fill="#DC0028"/>
</g>
<defs>
<clipPath id="clip0_542_1573">
<rect width="1366" height="168" fill="white"/>
</clipPath>
</defs>
</svg>
