<svg width="1366" height="168" viewBox="0 0 1366 168" fill="none" xmlns="http://www.w3.org/2000/svg">
<g clip-path="url(#clip0_542_1641)">
<rect x="-314.076" y="-11" width="2000" height="120" transform="rotate(2 -314.076 -11)" fill="#DC0028"/>
<path d="M-18.9779 48.6372C-16.4107 48.7269 -14.2569 46.7184 -14.1673 44.1512C-14.0776 41.584 -16.0861 39.4302 -18.6533 39.3406C-21.2205 39.2509 -23.3743 41.2594 -23.4639 43.8266C-23.5536 46.3938 -21.5451 48.5476 -18.9779 48.6372Z" fill="white"/>
<path d="M-11.5275 52.0326C-9.77563 53.9113 -6.83247 54.014 -4.95379 52.2621C-3.07512 50.5103 -2.97234 47.5671 -4.72423 45.6884C-6.47612 43.8097 -9.41929 43.707 -11.298 45.4589C-13.1766 47.2108 -13.2794 50.1539 -11.5275 52.0326Z" fill="white"/>
<path d="M-30.0424 58.955C-30.1321 61.5222 -32.2859 63.5307 -34.8531 63.441C-37.4203 63.3514 -39.4288 61.1976 -39.3391 58.6304C-39.2495 56.0632 -37.0956 54.0547 -34.5285 54.1444C-31.9613 54.234 -29.9528 56.3878 -30.0424 58.955Z" fill="white"/>
<path d="M-33.2208 51.275C-31.4689 53.1537 -28.5257 53.2565 -26.6471 51.5046C-24.7684 49.7527 -24.6656 46.8095 -26.4175 44.9309C-28.1694 43.0522 -31.1125 42.9494 -32.9912 44.7013C-34.8699 46.4532 -34.9727 49.3964 -33.2208 51.275Z" fill="white"/>
<path d="M0.63653 60.0264C0.546882 62.5936 -1.60691 64.602 -4.17412 64.5124C-6.74133 64.4227 -8.74978 62.2689 -8.66013 59.7017C-8.57048 57.1345 -6.41668 55.1261 -3.84947 55.2157C-1.28227 55.3054 0.726179 57.4592 0.63653 60.0264Z" fill="white"/>
<path d="M-12.2851 73.7259C-10.5332 75.6046 -7.59001 75.7073 -5.71134 73.9555C-3.83266 72.2036 -3.72988 69.2604 -5.48178 67.3817C-7.23367 65.503 -10.1768 65.4003 -12.0555 67.1522C-13.9342 68.9041 -14.037 71.8472 -12.2851 73.7259Z" fill="white"/>
<path d="M-15.2386 74.8302C-15.3283 77.3974 -17.4821 79.4059 -20.0493 79.3162C-22.6165 79.2266 -24.6249 77.0727 -24.5353 74.5056C-24.4456 71.9384 -22.2918 69.9299 -19.7246 70.0195C-17.1574 70.1092 -15.149 72.263 -15.2386 74.8302Z" fill="white"/>
<path d="M-33.9783 72.9683C-32.2264 74.847 -29.2833 74.9498 -27.4046 73.1979C-25.5259 71.446 -25.4232 68.5029 -27.175 66.6242C-28.9269 64.7455 -31.8701 64.6427 -33.7488 66.3946C-35.6275 68.1465 -35.7302 71.0897 -33.9783 72.9683Z" fill="white"/>
<path d="M51.5577 82.6572C48.4796 82.5497 45.745 81.7738 43.354 80.3295C41.0029 78.8866 39.169 76.9614 37.8522 74.554C36.5354 72.1465 35.9293 69.4437 36.034 66.4456L37.0308 37.903L45.5456 38.2003L44.7582 60.7466L40.5956 61.3216C40.6599 59.4828 41.2795 57.7834 42.4547 56.2234C43.6698 54.6649 45.2136 53.438 47.086 52.5428C48.9584 51.6476 50.9739 51.2377 53.1326 51.3131C56.2107 51.4206 58.886 52.1744 61.1585 53.5746C63.471 54.9761 65.245 56.8992 66.4804 59.3438C67.7173 61.7484 68.2819 64.4898 68.1745 67.5679C68.0753 70.4062 67.2843 73.0002 65.8014 75.3499C64.3199 77.6596 62.3348 79.4914 59.846 80.8454C57.3986 82.1608 54.6358 82.7647 51.5577 82.6572ZM51.8383 74.6221C53.3174 74.6738 54.6285 74.3793 55.7715 73.7388C56.956 73.0598 57.8882 72.1517 58.5683 71.0148C59.2484 69.8778 59.6122 68.6298 59.6596 67.2706C59.7085 65.8714 59.4334 64.5811 58.8342 63.3994C58.2365 62.1778 57.3699 61.207 56.2343 60.4869C55.1387 59.7682 53.8514 59.3831 52.3723 59.3314C50.9332 59.2812 49.6221 59.5756 48.4391 60.2147C47.296 60.8552 46.3637 61.7632 45.6423 62.9388C44.9622 64.0757 44.5977 65.3438 44.5489 66.7429C44.5014 68.1021 44.7772 69.3725 45.3763 70.5541C46.0154 71.7371 46.8821 72.708 47.9763 73.4666C49.1118 74.1867 50.3992 74.5719 51.8383 74.6221ZM88.0092 83.8701C84.931 83.7626 82.1758 83.006 79.7433 81.6002C77.3523 80.1559 75.4984 78.23 74.1816 75.8226C72.8662 73.3752 72.2636 70.5725 72.3739 67.4144C72.473 64.5761 73.2034 62.0001 74.565 59.6862C75.9679 57.3337 77.8531 55.4984 80.2206 54.1802C82.5894 52.822 85.2929 52.196 88.3311 52.3021C91.4891 52.4124 94.1431 53.2055 96.2929 54.6814C98.4441 56.1174 100.06 57.9949 101.139 60.314C102.259 62.6345 102.771 65.1539 102.676 67.8722L102.588 70.3907L79.0828 69.5699L80.4753 67.5172C80.3367 69.1934 80.5642 70.7022 81.1577 72.0438C81.7912 73.3867 82.6944 74.4589 83.8671 75.2603C85.0812 76.0231 86.5278 76.4339 88.2068 76.4925C89.8058 76.5483 91.2582 76.2188 92.5639 75.504C93.9096 74.7905 94.946 73.766 95.6731 72.4306L102.094 75.9568C100.721 78.5905 98.8097 80.605 96.3595 82.0004C93.9507 83.3571 91.1672 83.9804 88.0092 83.8701ZM81.0471 64.8956L94.299 65.3583C94.2154 64.3148 93.8877 63.3828 93.316 62.5623C92.7857 61.7033 92.0685 61.0379 91.1644 60.566C90.2617 60.0542 89.2107 59.7773 88.0114 59.7355C86.7722 59.6922 85.6645 59.8937 84.6883 60.3399C83.7521 60.7875 82.9696 61.4205 82.3406 62.2391C81.753 63.0191 81.3219 63.9045 81.0471 64.8956ZM136.89 85.6371C133.772 85.5282 131.153 84.8764 129.033 83.6817C126.955 82.4484 125.335 80.7108 124.172 78.4689L130.592 75.1509C131.23 76.3739 132.039 77.2827 133.018 77.8772C134 78.4318 135.23 78.7349 136.709 78.7866C137.628 78.8187 138.411 78.746 139.058 78.5684C139.746 78.3523 140.277 78.0507 140.65 77.6635C141.066 77.2377 141.284 76.725 141.305 76.1254C141.332 75.3258 140.953 74.7322 140.166 74.3445C139.38 73.9169 138.372 73.5615 137.141 73.2783C135.951 72.9966 134.661 72.6714 133.273 72.3027C131.885 71.9341 130.582 71.4283 129.364 70.7854C128.145 70.1425 127.156 69.2474 126.396 68.1002C125.677 66.9143 125.35 65.362 125.417 63.4432C125.48 61.6443 126.017 60.042 127.026 58.6364C128.076 57.2322 129.515 56.1417 131.343 55.3651C133.171 54.5884 135.305 54.2426 137.743 54.3278C139.902 54.4032 141.75 54.7679 143.288 55.422C144.826 56.0761 146.098 56.9009 147.104 57.8967C148.15 58.8938 148.953 59.9824 149.512 61.1627L143.092 64.4806C142.69 63.3859 141.978 62.5606 140.957 62.0046C139.976 61.45 138.886 61.1518 137.686 61.1099C137.007 61.0862 136.383 61.1845 135.815 61.4048C135.248 61.5851 134.798 61.8696 134.464 62.2582C134.132 62.6068 133.957 63.041 133.939 63.5606C133.911 64.3601 134.269 64.993 135.013 65.4593C135.799 65.887 136.807 66.2424 138.038 66.5255C139.268 66.8086 140.578 67.1345 141.966 67.5032C143.354 67.8718 144.636 68.3969 145.813 69.0784C147.032 69.7213 148.021 70.6164 148.781 71.7636C149.542 72.9109 149.89 74.4039 149.826 76.2428C149.756 78.2416 149.115 79.9603 147.905 81.3989C146.695 82.7975 145.116 83.8831 143.168 84.6556C141.221 85.3881 139.129 85.7153 136.89 85.6371ZM168.55 86.6826C165.672 86.5821 163.158 85.7939 161.008 84.318C158.859 82.8021 157.187 80.8425 155.99 78.4393C154.834 75.9975 154.307 73.3374 154.407 70.4592C154.507 67.6209 155.297 65.0469 156.778 62.7372C158.301 60.3889 160.286 58.5571 162.734 57.2417C165.223 55.8878 167.986 55.2638 171.024 55.3699C174.102 55.4774 176.836 56.2733 179.226 57.7576C181.617 59.2019 183.471 61.1278 184.788 63.5352C186.106 65.9027 186.713 68.5855 186.608 71.5837L186.086 86.5146L177.991 86.2319L178.366 75.4984L180.97 74.8689C180.889 77.1875 180.316 79.2687 179.251 81.1127C178.187 82.9167 176.757 84.3276 174.96 85.3455C173.165 86.3235 171.028 86.7692 168.55 86.6826ZM170.208 78.7557C171.687 78.8073 172.998 78.5129 174.141 77.8724C175.325 77.1933 176.257 76.2853 176.938 75.1483C177.658 74.0128 178.042 72.7454 178.091 71.3463C178.14 69.9471 177.845 68.656 177.206 67.473C176.606 66.2914 175.739 65.3405 174.604 64.6205C173.509 63.8618 172.223 63.4567 170.744 63.405C169.305 63.3548 167.993 63.6692 166.808 64.3483C165.665 64.9887 164.734 65.8768 164.014 67.0123C163.334 68.1493 162.969 69.4174 162.92 70.8165C162.871 72.2156 163.146 73.506 163.746 74.6877C164.385 75.8707 165.251 76.8415 166.346 77.6002C167.481 78.3202 168.768 78.7054 170.208 78.7557ZM204.907 87.1718L196.392 86.8744L197.483 55.6335C197.566 53.2349 198.122 51.093 199.148 49.2077C200.174 47.3223 201.667 45.8535 203.624 44.8012C205.582 43.7489 208 43.273 210.879 43.3735C211.878 43.4084 212.854 43.5425 213.806 43.7759C214.76 43.9693 215.611 44.2392 216.36 44.5855L216.085 52.4407C215.421 51.9773 214.673 51.631 213.84 51.4018C213.008 51.1726 212.192 51.044 211.392 51.0161C209.793 50.9602 208.499 51.3353 207.511 52.1413C206.563 52.9087 206.06 54.1319 206.002 55.8109L204.907 87.1718ZM215.166 65.0163L191.9 64.2039L192.151 57.0082L215.417 57.8207L215.166 65.0163ZM233.116 88.9373C230.038 88.8298 227.283 88.0732 224.85 86.6675C222.459 85.2232 220.605 83.2973 219.288 80.8899C217.973 78.4425 217.371 75.6397 217.481 72.4816C217.58 69.6434 218.31 67.0673 219.672 64.7534C221.075 62.4009 222.96 60.5656 225.327 59.2474C227.696 57.8893 230.4 57.2632 233.438 57.3693C236.596 57.4796 239.25 58.2727 241.4 59.7487C243.551 61.1846 245.166 63.0621 246.246 65.3812C247.366 67.7017 247.878 70.2211 247.783 72.9395L247.695 75.4579L224.19 74.6371L225.582 72.5844C225.444 74.2606 225.671 75.7695 226.265 77.111C226.898 78.4539 227.801 79.5261 228.974 80.3275C230.188 81.0904 231.635 81.5011 233.314 81.5597C234.913 81.6156 236.365 81.2861 237.671 80.5712C239.016 79.8577 240.053 78.8333 240.78 77.4978L247.201 81.0241C245.828 83.6578 243.917 85.6723 241.466 87.0676C239.058 88.4244 236.274 89.0476 233.116 88.9373ZM226.154 69.9628L239.406 70.4256C239.322 69.382 238.995 68.45 238.423 67.6296C237.893 66.7705 237.175 66.1051 236.271 65.6333C235.369 65.1214 234.318 64.8446 233.118 64.8027C231.879 64.7594 230.771 64.9609 229.795 65.4071C228.859 65.8547 228.076 66.4878 227.447 67.3063C226.86 68.0863 226.429 68.9718 226.154 69.9628Z" fill="#101014"/>
<path d="M303.825 59.9097C306.392 59.9993 308.546 57.9909 308.636 55.4237C308.726 52.8565 306.717 50.7027 304.15 50.613C301.583 50.5234 299.429 52.5318 299.339 55.099C299.25 57.6662 301.258 59.82 303.825 59.9097Z" fill="white"/>
<path d="M311.276 63.305C313.028 65.1837 315.971 65.2865 317.849 63.5346C319.728 61.7827 319.831 58.8396 318.079 56.9609C316.327 55.0822 313.384 54.9794 311.505 56.7313C309.627 58.4832 309.524 61.4264 311.276 63.305Z" fill="white"/>
<path d="M292.761 70.2275C292.671 72.7947 290.517 74.8032 287.95 74.7135C285.383 74.6239 283.374 72.4701 283.464 69.9029C283.554 67.3357 285.708 65.3272 288.275 65.4169C290.842 65.5065 292.85 67.6603 292.761 70.2275Z" fill="white"/>
<path d="M289.582 62.5475C291.334 64.4262 294.277 64.529 296.156 62.7771C298.035 61.0252 298.138 58.082 296.386 56.2033C294.634 54.3247 291.691 54.2219 289.812 55.9738C287.933 57.7257 287.831 60.6688 289.582 62.5475Z" fill="white"/>
<path d="M323.44 71.2988C323.35 73.866 321.196 75.8745 318.629 75.7848C316.062 75.6952 314.053 73.5414 314.143 70.9742C314.233 68.407 316.387 66.3985 318.954 66.4882C321.521 66.5778 323.529 68.7316 323.44 71.2988Z" fill="white"/>
<path d="M310.518 84.9984C312.27 86.877 315.213 86.9798 317.092 85.2279C318.971 83.476 319.073 80.5329 317.321 78.6542C315.57 76.7755 312.626 76.6727 310.748 78.4246C308.869 80.1765 308.766 83.1197 310.518 84.9984Z" fill="white"/>
<path d="M307.565 86.1027C307.475 88.6699 305.321 90.6783 302.754 90.5887C300.187 90.499 298.178 88.3452 298.268 85.778C298.358 83.2108 300.511 81.2024 303.079 81.292C305.646 81.3817 307.654 83.5355 307.565 86.1027Z" fill="white"/>
<path d="M288.825 84.2408C290.577 86.1195 293.52 86.2223 295.399 84.4704C297.277 82.7185 297.38 79.7753 295.628 77.8966C293.876 76.018 290.933 75.9152 289.054 77.6671C287.176 79.419 287.073 82.3621 288.825 84.2408Z" fill="white"/>
<path d="M374.361 93.9297C371.283 93.8222 368.548 93.0463 366.157 91.602C363.806 90.159 361.972 88.2338 360.655 85.8264C359.339 83.419 358.733 80.7162 358.837 77.718L359.834 49.1754L368.349 49.4728L367.562 72.019L363.399 72.5941C363.463 70.7552 364.083 69.0558 365.258 67.4959C366.473 65.9373 368.017 64.7105 369.889 63.8153C371.762 62.9201 373.777 62.5102 375.936 62.5855C379.014 62.693 381.689 63.4469 383.962 64.847C386.274 66.2486 388.048 68.1717 389.284 70.6163C390.521 73.0209 391.085 75.7623 390.978 78.8404C390.879 81.6787 390.088 84.2726 388.605 86.6223C387.123 88.932 385.138 90.7639 382.649 92.1178C380.202 93.4332 377.439 94.0372 374.361 93.9297ZM374.642 85.8946C376.121 85.9462 377.432 85.6518 378.575 85.0113C379.759 84.3322 380.691 83.4242 381.372 82.2873C382.052 81.1503 382.415 79.9022 382.463 78.5431C382.512 77.1439 382.237 75.8535 381.638 74.6719C381.04 73.4503 380.173 72.4795 379.038 71.7594C377.942 71.0407 376.655 70.6555 375.176 70.6039C373.736 70.5536 372.425 70.8481 371.242 71.4872C370.099 72.1277 369.167 73.0357 368.446 74.2112C367.765 75.3482 367.401 76.6162 367.352 78.0154C367.305 79.3745 367.581 80.6449 368.18 81.8266C368.819 83.0096 369.685 83.9804 370.78 84.7391C371.915 85.4592 373.202 85.8443 374.642 85.8946ZM410.812 95.1426C407.734 95.0351 404.979 94.2784 402.547 92.8727C400.156 91.4284 398.302 89.5025 396.985 87.0951C395.669 84.6477 395.067 81.8449 395.177 78.6869C395.276 75.8486 396.007 73.2725 397.368 70.9586C398.771 68.6062 400.656 66.7708 403.024 65.4526C405.393 64.0945 408.096 63.4685 411.134 63.5746C414.292 63.6848 416.946 64.4779 419.096 65.9539C421.247 67.3898 422.863 69.2673 423.943 71.5864C425.062 73.9069 425.575 76.4263 425.48 79.1447L425.392 81.6632L401.886 80.8423L403.279 78.7897C403.14 80.4658 403.367 81.9747 403.961 83.3162C404.595 84.6592 405.498 85.7313 406.67 86.5328C407.885 87.2956 409.331 87.7063 411.01 87.765C412.609 87.8208 414.061 87.4913 415.367 86.7764C416.713 86.0629 417.749 85.0385 418.476 83.7031L424.897 87.2293C423.524 89.863 421.613 91.8775 419.163 93.2728C416.754 94.6296 413.971 95.2528 410.812 95.1426ZM403.85 76.168L417.102 76.6308C417.019 75.5872 416.691 74.6552 416.119 73.8348C415.589 72.9757 414.872 72.3103 413.968 71.8385C413.065 71.3267 412.014 71.0498 410.815 71.0079C409.575 70.9647 408.468 71.1661 407.492 71.6123C406.555 72.0599 405.773 72.693 405.144 73.5115C404.556 74.2915 404.125 75.177 403.85 76.168ZM459.693 96.9095C456.575 96.8007 453.956 96.1489 451.837 94.9542C449.758 93.7209 448.138 91.9833 446.976 89.7413L453.395 86.4234C454.033 87.6464 454.842 88.5551 455.822 89.1497C456.803 89.7043 458.033 90.0074 459.512 90.0591C460.432 90.0912 461.215 90.0184 461.861 89.8409C462.549 89.6248 463.08 89.3231 463.454 88.9359C463.869 88.5102 464.087 87.9975 464.108 87.3978C464.136 86.5983 463.756 86.0047 462.969 85.617C462.184 85.1893 461.176 84.8339 459.945 84.5508C458.754 84.2691 457.464 83.9439 456.076 83.5752C454.688 83.2065 453.385 82.7007 452.167 82.0578C450.949 81.4149 449.959 80.5198 449.199 79.3726C448.48 78.1868 448.154 76.6345 448.221 74.7156C448.284 72.9167 448.82 71.3145 449.83 69.9089C450.879 68.5046 452.318 67.4142 454.146 66.6375C455.975 65.8608 458.108 65.5151 460.546 65.6002C462.705 65.6756 464.553 66.0404 466.092 66.6944C467.63 67.3485 468.902 68.1734 469.908 69.1691C470.953 70.1662 471.756 71.2549 472.315 72.4351L465.895 75.7531C465.493 74.6584 464.782 73.8331 463.76 73.2771C462.779 72.7225 461.689 72.4243 460.49 72.3824C459.81 72.3587 459.186 72.457 458.618 72.6773C458.052 72.8576 457.601 73.1421 457.268 73.5307C456.935 73.8793 456.76 74.3134 456.742 74.8331C456.714 75.6326 457.072 76.2655 457.816 76.7317C458.602 77.1594 459.61 77.5148 460.841 77.798C462.072 78.0811 463.381 78.407 464.769 78.7756C466.157 79.1443 467.44 79.6694 468.617 80.3509C469.835 80.9938 470.824 81.8889 471.585 83.0361C472.345 84.1833 472.693 85.6764 472.629 87.5153C472.559 89.5141 471.919 91.2328 470.708 92.6714C469.498 94.07 467.919 95.1556 465.971 95.928C464.025 96.6606 461.932 96.9877 459.693 96.9095ZM492.852 98.0074C489.774 97.9 487.019 97.1433 484.586 95.7376C482.195 94.2933 480.341 92.3674 479.025 89.96C477.709 87.5126 477.107 84.7098 477.217 81.5518C477.316 78.7135 478.047 76.1374 479.408 73.8235C480.811 71.471 482.696 69.6357 485.064 68.3175C487.433 66.9594 490.136 66.3334 493.174 66.4395C496.332 66.5497 498.986 67.3428 501.136 68.8188C503.287 70.2547 504.903 72.1322 505.982 74.4513C507.102 76.7718 507.614 79.2912 507.52 82.0096L507.432 84.528L483.926 83.7072L485.318 81.6546C485.18 83.3307 485.407 84.8396 486.001 86.1811C486.634 87.5241 487.537 88.5962 488.71 89.3976C489.924 90.1605 491.371 90.5712 493.05 90.6298C494.649 90.6857 496.101 90.3562 497.407 89.6413C498.753 88.9278 499.789 87.9034 500.516 86.5679L506.937 90.0942C505.564 92.7279 503.653 94.7424 501.203 96.1377C498.794 97.4945 496.01 98.1177 492.852 98.0074ZM485.89 79.0329L499.142 79.4957C499.059 78.4521 498.731 77.5201 498.159 76.6997C497.629 75.8406 496.912 75.1752 496.008 74.7034C495.105 74.1916 494.054 73.9147 492.855 73.8728C491.615 73.8295 490.508 74.031 489.531 74.4772C488.595 74.9248 487.813 75.5579 487.184 76.3764C486.596 77.1564 486.165 78.0419 485.89 79.0329ZM527.87 99.2303C524.792 99.1228 522.037 98.3662 519.604 96.9604C517.213 95.5161 515.359 93.5902 514.042 91.1828C512.727 88.7354 512.124 85.9327 512.235 82.7746C512.334 79.9363 513.064 77.3603 514.426 75.0464C515.829 72.6939 517.714 70.8586 520.081 69.5404C522.45 68.1822 525.154 67.5562 528.192 67.6623C531.35 67.7726 534.004 68.5657 536.154 70.0416C538.305 71.4776 539.92 73.3551 541 75.6742C542.12 77.9947 542.632 80.5141 542.537 83.2324L542.449 85.7509L518.944 84.9301L520.336 82.8774C520.198 84.5536 520.425 86.0624 521.019 87.404C521.652 88.7469 522.555 89.8191 523.728 90.6205C524.942 91.3833 526.389 91.7941 528.068 91.8527C529.667 91.9085 531.119 91.579 532.425 90.8642C533.77 90.1507 534.807 89.1262 535.534 87.7908L541.955 91.317C540.582 93.9507 538.671 95.9652 536.22 97.3606C533.812 98.7173 531.028 99.3406 527.87 99.2303ZM520.908 80.2558L534.16 80.7185C534.076 79.675 533.749 78.743 533.177 77.9225C532.647 77.0635 531.929 76.3981 531.025 75.9262C530.123 75.4144 529.072 75.1375 527.872 75.0957C526.633 75.0524 525.525 75.2539 524.549 75.7001C523.613 76.1477 522.83 76.7807 522.201 77.5993C521.614 78.3793 521.183 79.2647 520.908 80.2558ZM564.471 77.4544C562.872 77.3986 561.539 77.7522 560.472 78.5155C559.406 79.2387 558.611 80.2316 558.086 81.494C557.563 82.7165 557.275 84.1073 557.22 85.6663L556.739 99.4579L548.224 99.1606L548.741 84.3496C548.842 81.4714 549.493 78.8725 550.694 76.553C551.937 74.195 553.723 72.3562 556.05 71.0366C558.379 69.677 561.282 69.058 564.76 69.1794C568.238 69.3009 571.091 70.121 573.32 71.6397C575.589 73.1198 577.263 75.0593 578.34 77.4584C579.417 79.8574 579.904 82.5161 579.802 85.4343L579.285 100.245L570.77 99.9479L571.252 86.1563C571.305 84.6373 571.094 83.229 570.619 81.9317C570.144 80.6343 569.4 79.5877 568.387 78.7919C567.416 77.9575 566.11 77.5116 564.471 77.4544Z" fill="#101014"/>
<path d="M636.622 71.5318C639.19 71.6214 641.343 69.613 641.433 67.0458C641.523 64.4785 639.514 62.3247 636.947 62.2351C634.38 62.1455 632.226 64.1539 632.136 66.7211C632.047 69.2883 634.055 71.4421 636.622 71.5318Z" fill="white"/>
<path d="M644.073 74.9271C645.825 76.8058 648.768 76.9086 650.647 75.1567C652.525 73.4048 652.628 70.4616 650.876 68.5829C649.124 66.7043 646.181 66.6015 644.302 68.3534C642.424 70.1053 642.321 73.0484 644.073 74.9271Z" fill="white"/>
<path d="M625.558 81.8496C625.468 84.4168 623.314 86.4252 620.747 86.3356C618.18 86.2459 616.172 84.0921 616.261 81.5249C616.351 78.9577 618.505 76.9493 621.072 77.0389C623.639 77.1286 625.648 79.2824 625.558 81.8496Z" fill="white"/>
<path d="M622.38 74.1696C624.131 76.0482 627.075 76.151 628.953 74.3991C630.832 72.6472 630.935 69.7041 629.183 67.8254C627.431 65.9467 624.488 65.8439 622.609 67.5958C620.73 69.3477 620.628 72.2909 622.38 74.1696Z" fill="white"/>
<path d="M656.237 82.9209C656.147 85.4881 653.993 87.4966 651.426 87.4069C648.859 87.3173 646.851 85.1635 646.94 82.5963C647.03 80.0291 649.184 78.0206 651.751 78.1103C654.318 78.1999 656.327 80.3537 656.237 82.9209Z" fill="white"/>
<path d="M643.315 96.6204C645.067 98.4991 648.01 98.6019 649.889 96.85C651.768 95.0981 651.87 92.1549 650.119 90.2763C648.367 88.3976 645.424 88.2948 643.545 90.0467C641.666 91.7986 641.563 94.7417 643.315 96.6204Z" fill="white"/>
<path d="M640.362 97.7247C640.272 100.292 638.118 102.3 635.551 102.211C632.984 102.121 630.975 99.9673 631.065 97.4001C631.155 94.8329 633.309 92.8244 635.876 92.9141C638.443 93.0037 640.451 95.1575 640.362 97.7247Z" fill="white"/>
<path d="M621.622 95.8629C623.374 97.7416 626.317 97.8443 628.196 96.0924C630.074 94.3405 630.177 91.3974 628.425 89.5187C626.673 87.64 623.73 87.5373 621.852 89.2891C619.973 91.041 619.87 93.9842 621.622 95.8629Z" fill="white"/>
<path d="M707.158 105.552C704.08 105.444 701.345 104.668 698.954 103.224C696.603 101.781 694.769 99.8559 693.453 97.4485C692.136 95.0411 691.53 92.3383 691.634 89.3401L692.631 60.7975L701.146 61.0948L700.359 83.6411L696.196 84.2162C696.26 82.3773 696.88 80.6779 698.055 79.118C699.27 77.5594 700.814 76.3325 702.686 75.4373C704.559 74.5421 706.574 74.1322 708.733 74.2076C711.811 74.3151 714.486 75.0689 716.759 76.4691C719.071 77.8707 720.845 79.7937 722.081 82.2383C723.318 84.643 723.882 87.3843 723.775 90.4625C723.676 93.3007 722.885 95.8947 721.402 98.2444C719.92 100.554 717.935 102.386 715.446 103.74C712.999 105.055 710.236 105.659 707.158 105.552ZM707.439 97.5166C708.918 97.5683 710.229 97.2739 711.372 96.6334C712.556 95.9543 713.489 95.0463 714.169 93.9093C714.849 92.7724 715.213 91.5243 715.26 90.1651C715.309 88.766 715.034 87.4756 714.435 86.294C713.837 85.0724 712.97 84.1015 711.835 83.3815C710.739 82.6628 709.452 82.2776 707.973 82.226C706.534 82.1757 705.222 82.4701 704.039 83.1092C702.896 83.7497 701.964 84.6578 701.243 85.8333C700.563 86.9702 700.198 88.2383 700.149 89.6374C700.102 90.9966 700.378 92.267 700.977 93.4486C701.616 94.6317 702.482 95.6025 703.577 96.3612C704.712 97.0812 706 97.4664 707.439 97.5166ZM743.61 106.765C740.531 106.657 737.776 105.901 735.344 104.495C732.953 103.05 731.099 101.125 729.782 98.7171C728.467 96.2697 727.864 93.467 727.974 90.3089C728.073 87.4707 728.804 84.8946 730.165 82.5807C731.568 80.2282 733.454 78.3929 735.821 77.0747C738.19 75.7166 740.893 75.0905 743.931 75.1966C747.09 75.3069 749.743 76.1 751.893 77.5759C754.044 79.0119 755.66 80.8894 756.74 83.2085C757.859 85.529 758.372 88.0484 758.277 90.7668L758.189 93.2852L734.683 92.4644L736.076 90.4117C735.937 92.0879 736.165 93.5968 736.758 94.9383C737.392 96.2812 738.295 97.3534 739.468 98.1548C740.682 98.9177 742.128 99.3284 743.807 99.387C745.406 99.4429 746.859 99.1134 748.164 98.3985C749.51 97.685 750.546 96.6606 751.273 95.3251L757.694 98.8514C756.322 101.485 754.41 103.5 751.96 104.895C749.551 106.252 746.768 106.875 743.61 106.765ZM736.648 87.7901L749.899 88.2529C749.816 87.2093 749.488 86.2773 748.916 85.4568C748.386 84.5978 747.669 83.9324 746.765 83.4605C745.862 82.9487 744.811 82.6719 743.612 82.63C742.373 82.5867 741.265 82.7882 740.289 83.2344C739.353 83.682 738.57 84.3151 737.941 85.1336C737.353 85.9136 736.922 86.7991 736.648 87.7901ZM786.815 102.57L778.625 77.4888L787.68 77.805L794.754 100.446C794.675 100.403 794.635 100.402 794.634 100.441C794.674 100.443 794.694 100.444 794.694 100.444C794.695 100.404 794.655 100.402 794.574 100.439L803.21 78.3473L812.265 78.6635L802.226 103.108C801.439 105.002 800.389 106.406 799.077 107.321C797.764 108.235 796.188 108.661 794.349 108.597C792.55 108.534 790.988 107.999 789.662 106.992C788.377 105.986 787.428 104.512 786.815 102.57ZM817.379 78.8421L825.894 79.1395L824.857 108.821L816.342 108.524L817.379 78.8421ZM821.791 74.5535C820.832 74.52 819.94 74.2687 819.116 73.7997C818.333 73.2921 817.716 72.6301 817.264 71.8138C816.854 70.959 816.665 70.0519 816.699 69.0925C816.732 68.133 816.983 67.2612 817.451 66.4771C817.958 65.6943 818.62 65.0771 819.436 64.6253C820.293 64.1749 821.2 63.9664 822.16 63.9999C823.119 64.0334 823.99 64.304 824.773 64.8116C825.556 65.3193 826.153 65.9805 826.565 66.7954C827.017 67.6116 827.226 68.4995 827.192 69.4589C827.159 70.4183 826.888 71.3094 826.379 72.1321C825.911 72.9163 825.269 73.5343 824.453 73.986C823.638 74.3979 822.751 74.587 821.791 74.5535ZM844.783 110.358C841.665 110.249 839.046 109.597 836.926 108.402C834.848 107.169 833.228 105.431 832.065 103.189L838.485 99.8715C839.123 101.095 839.931 102.003 840.911 102.598C841.892 103.152 843.123 103.456 844.602 103.507C845.521 103.539 846.304 103.467 846.951 103.289C847.639 103.073 848.169 102.771 848.543 102.384C848.958 101.958 849.176 101.446 849.197 100.846C849.225 100.046 848.846 99.4529 848.059 99.0652C847.273 98.6375 846.265 98.2821 845.034 97.999C843.843 97.7172 842.554 97.392 841.166 97.0234C839.778 96.6547 838.475 96.1489 837.256 95.506C836.038 94.8631 835.049 93.968 834.288 92.8208C833.569 91.635 833.243 90.0826 833.31 88.1638C833.373 86.3649 833.909 84.7626 834.919 83.357C835.969 81.9528 837.408 80.8623 839.236 80.0857C841.064 79.309 843.197 78.9633 845.636 79.0484C847.795 79.1238 849.643 79.4885 851.181 80.1426C852.719 80.7967 853.991 81.6216 854.997 82.6173C856.043 83.6144 856.845 84.7031 857.405 85.8833L850.985 89.2013C850.583 88.1066 849.871 87.2812 848.85 86.7252C847.869 86.1707 846.778 85.8724 845.579 85.8306C844.9 85.8068 844.276 85.9051 843.708 86.1254C843.141 86.3058 842.691 86.5902 842.357 86.9788C842.025 87.3274 841.849 87.7616 841.831 88.2813C841.803 89.0808 842.162 89.7137 842.906 90.1799C843.691 90.6076 844.699 90.963 845.93 91.2461C847.161 91.5292 848.471 91.8551 849.859 92.2238C851.247 92.5925 852.529 93.1175 853.706 93.799C854.924 94.4419 855.914 95.337 856.674 96.4843C857.435 97.6315 857.783 99.1246 857.718 100.963C857.649 102.962 857.008 104.681 855.797 106.12C854.588 107.518 853.009 108.604 851.061 109.376C849.114 110.109 847.021 110.436 844.783 110.358ZM865.514 80.523L874.029 80.8204L872.992 110.502L864.477 110.205L865.514 80.523ZM869.926 76.2344C868.967 76.2009 868.075 75.9496 867.251 75.4806C866.468 74.973 865.851 74.311 865.399 73.4947C864.989 72.6399 864.8 71.7328 864.834 70.7734C864.867 69.8139 865.118 68.9422 865.585 68.158C866.093 67.3752 866.755 66.758 867.571 66.3062C868.427 65.8558 869.335 65.6473 870.295 65.6808C871.254 65.7143 872.125 65.9849 872.908 66.4925C873.691 67.0002 874.288 67.6614 874.7 68.4763C875.152 69.2925 875.361 70.1804 875.327 71.1398C875.294 72.0992 875.022 72.9903 874.513 73.813C874.046 74.5972 873.404 75.2152 872.587 75.6669C871.773 76.0788 870.885 76.2679 869.926 76.2344ZM897.355 112.194C894.277 112.086 891.542 111.31 889.151 109.866C886.8 108.423 884.966 106.498 883.649 104.09C882.332 101.683 881.726 98.9801 881.831 95.9819L882.828 67.4393L891.343 67.7367L890.555 90.2829L886.393 90.858C886.457 89.0191 887.077 87.3197 888.252 85.7598C889.467 84.2012 891.011 82.9744 892.883 82.0792C894.755 81.184 896.771 80.774 898.93 80.8494C902.008 80.9569 904.683 81.7107 906.956 83.1109C909.268 84.5125 911.042 86.4355 912.277 88.8802C913.514 91.2848 914.079 94.0262 913.971 97.1043C913.872 99.9426 913.081 102.537 911.598 104.886C910.117 107.196 908.132 109.028 905.643 110.382C903.196 111.697 900.433 112.301 897.355 112.194ZM897.635 104.158C899.114 104.21 900.425 103.916 901.569 103.275C902.753 102.596 903.685 101.688 904.365 100.551C905.045 99.4142 905.409 98.1661 905.457 96.8069C905.505 95.4078 905.23 94.1174 904.631 92.9358C904.033 91.7142 903.167 90.7433 902.031 90.0233C900.936 89.3046 899.648 88.9194 898.169 88.8678C896.73 88.8175 895.419 89.1119 894.236 89.751C893.093 90.3915 892.161 91.2996 891.439 92.4751C890.759 93.6121 890.395 94.8801 890.346 96.2793C890.298 97.6384 890.574 98.9088 891.173 100.09C891.812 101.273 892.679 102.244 893.773 103.003C894.909 103.723 896.196 104.108 897.635 104.158ZM921.856 68.8022L930.37 69.0995L928.856 112.453L920.342 112.156L921.856 68.8022ZM951.842 114.036C948.764 113.929 946.009 113.172 943.576 111.766C941.185 110.322 939.331 108.396 938.014 105.989C936.699 103.541 936.096 100.739 936.207 97.5806C936.306 94.7423 937.036 92.1662 938.398 89.8523C939.801 87.4999 941.686 85.6645 944.053 84.3464C946.422 82.9882 949.126 82.3622 952.164 82.4683C955.322 82.5785 957.976 83.3717 960.126 84.8476C962.277 86.2835 963.892 88.161 964.972 90.4801C966.092 92.8006 966.604 95.3201 966.509 98.0384L966.421 100.557L942.916 99.736L944.308 97.6834C944.17 99.3596 944.397 100.868 944.991 102.21C945.624 103.553 946.527 104.625 947.7 105.426C948.914 106.189 950.361 106.6 952.04 106.659C953.639 106.715 955.091 106.385 956.397 105.67C957.742 104.957 958.779 103.932 959.506 102.597L965.927 106.123C964.554 108.757 962.643 110.771 960.192 112.167C957.784 113.523 955 114.147 951.842 114.036ZM944.88 95.0617L958.132 95.5245C958.048 94.4809 957.721 93.5489 957.149 92.7285C956.619 91.8695 955.901 91.204 954.997 90.7322C954.095 90.2204 953.044 89.9435 951.844 89.9016C950.605 89.8584 949.497 90.0598 948.521 90.506C947.585 90.9536 946.802 91.5867 946.173 92.4053C945.586 93.1852 945.155 94.0707 944.88 95.0617Z" fill="#101014"/>
<path d="M1022.39 85.0025C1024.95 85.0921 1027.11 83.0837 1027.2 80.5165C1027.29 77.9493 1025.28 75.7955 1022.71 75.7058C1020.14 75.6162 1017.99 77.6246 1017.9 80.1918C1017.81 82.759 1019.82 84.9128 1022.39 85.0025Z" fill="white"/>
<path d="M1029.84 88.3978C1031.59 90.2765 1034.53 90.3793 1036.41 88.6274C1038.29 86.8755 1038.39 83.9323 1036.64 82.0537C1034.89 80.175 1031.95 80.0722 1030.07 81.8241C1028.19 83.576 1028.09 86.5191 1029.84 88.3978Z" fill="white"/>
<path d="M1011.32 95.3203C1011.23 97.8875 1009.08 99.8959 1006.51 99.8063C1003.94 99.7166 1001.94 97.5628 1002.03 94.9956C1002.12 92.4284 1004.27 90.42 1006.84 90.5096C1009.4 90.5993 1011.41 92.7531 1011.32 95.3203Z" fill="white"/>
<path d="M1008.14 87.6403C1009.9 89.519 1012.84 89.6217 1014.72 87.8698C1016.6 86.1179 1016.7 83.1748 1014.95 81.2961C1013.2 79.4174 1010.25 79.3147 1008.37 81.0665C1006.5 82.8184 1006.39 85.7616 1008.14 87.6403Z" fill="white"/>
<path d="M1042 96.3916C1041.91 98.9588 1039.76 100.967 1037.19 100.878C1034.62 100.788 1032.62 98.6342 1032.71 96.067C1032.79 93.4998 1034.95 91.4913 1037.52 91.581C1040.08 91.6706 1042.09 93.8244 1042 96.3916Z" fill="white"/>
<path d="M1029.08 110.091C1030.83 111.97 1033.78 112.073 1035.65 110.321C1037.53 108.569 1037.64 105.626 1035.88 103.747C1034.13 101.868 1031.19 101.766 1029.31 103.517C1027.43 105.269 1027.33 108.212 1029.08 110.091Z" fill="white"/>
<path d="M1026.13 111.195C1026.04 113.763 1023.88 115.771 1021.32 115.681C1018.75 115.592 1016.74 113.438 1016.83 110.871C1016.92 108.304 1019.07 106.295 1021.64 106.385C1024.21 106.474 1026.22 108.628 1026.13 111.195Z" fill="white"/>
<path d="M1007.39 109.334C1009.14 111.212 1012.08 111.315 1013.96 109.563C1015.84 107.811 1015.94 104.868 1014.19 102.989C1012.44 101.111 1009.5 101.008 1007.62 102.76C1005.74 104.512 1005.64 107.455 1007.39 109.334Z" fill="white"/>
<path d="M1092.92 119.022C1089.84 118.915 1087.11 118.139 1084.72 116.695C1082.37 115.252 1080.53 113.327 1079.22 110.919C1077.9 108.512 1077.29 105.809 1077.4 102.811L1078.4 74.2682L1086.91 74.5655L1086.12 97.1118L1081.96 97.6869C1082.03 95.848 1082.64 94.1486 1083.82 92.5887C1085.04 91.0301 1086.58 89.8032 1088.45 88.908C1090.32 88.0128 1092.34 87.6029 1094.5 87.6783C1097.58 87.7858 1100.25 88.5396 1102.52 89.9398C1104.84 91.3414 1106.61 93.2644 1107.85 95.709C1109.08 98.1137 1109.65 100.855 1109.54 103.933C1109.44 106.771 1108.65 109.365 1107.17 111.715C1105.69 114.025 1103.7 115.857 1101.21 117.211C1098.76 118.526 1096 119.13 1092.92 119.022ZM1093.2 110.987C1094.68 111.039 1095.99 110.745 1097.14 110.104C1098.32 109.425 1099.25 108.517 1099.93 107.38C1100.61 106.243 1100.98 104.995 1101.02 103.636C1101.07 102.237 1100.8 100.946 1100.2 99.7647C1099.6 98.5431 1098.74 97.5722 1097.6 96.8522C1096.5 96.1335 1095.22 95.7483 1093.74 95.6967C1092.3 95.6464 1090.99 95.9408 1089.8 96.5799C1088.66 97.2204 1087.73 98.1285 1087.01 99.304C1086.33 100.441 1085.96 101.709 1085.91 103.108C1085.87 104.467 1086.14 105.738 1086.74 106.919C1087.38 108.102 1088.25 109.073 1089.34 109.832C1090.48 110.552 1091.76 110.937 1093.2 110.987ZM1129.37 120.235C1126.3 120.128 1123.54 119.371 1121.11 117.965C1118.72 116.521 1116.86 114.595 1115.55 112.188C1114.23 109.74 1113.63 106.938 1113.74 103.78C1113.84 100.941 1114.57 98.3653 1115.93 96.0514C1117.33 93.6989 1119.22 91.8636 1121.59 90.5454C1123.95 89.1873 1126.66 88.5612 1129.7 88.6673C1132.85 88.7776 1135.51 89.5707 1137.66 91.0466C1139.81 92.4826 1141.42 94.3601 1142.5 96.6792C1143.62 98.9997 1144.14 101.519 1144.04 104.237L1143.95 106.756L1120.45 105.935L1121.84 103.882C1121.7 105.559 1121.93 107.067 1122.52 108.409C1123.16 109.752 1124.06 110.824 1125.23 111.626C1126.45 112.388 1127.89 112.799 1129.57 112.858C1131.17 112.914 1132.62 112.584 1133.93 111.869C1135.27 111.156 1136.31 110.131 1137.04 108.796L1143.46 112.322C1142.09 114.956 1140.17 116.97 1137.72 118.366C1135.32 119.722 1132.53 120.346 1129.37 120.235ZM1122.41 101.261L1135.66 101.724C1135.58 100.68 1135.25 99.748 1134.68 98.9276C1134.15 98.0685 1133.43 97.4031 1132.53 96.9312C1131.63 96.4194 1130.58 96.1426 1129.38 96.1007C1128.14 96.0574 1127.03 96.2589 1126.05 96.7051C1125.12 97.1527 1124.33 97.7858 1123.71 98.6043C1123.12 99.3843 1122.69 100.27 1122.41 101.261ZM1178.26 122.002C1175.14 121.893 1172.52 121.242 1170.4 120.047C1168.32 118.814 1166.7 117.076 1165.54 114.834L1171.96 111.516C1172.6 112.739 1173.4 113.648 1174.38 114.242C1175.36 114.797 1176.6 115.1 1178.07 115.152C1178.99 115.184 1179.78 115.111 1180.42 114.934C1181.11 114.718 1181.64 114.416 1182.02 114.029C1182.43 113.603 1182.65 113.09 1182.67 112.491C1182.7 111.691 1182.32 111.097 1181.53 110.71C1180.75 110.282 1179.74 109.927 1178.51 109.644C1177.32 109.362 1176.03 109.037 1174.64 108.668C1173.25 108.299 1171.95 107.794 1170.73 107.151C1169.51 106.508 1168.52 105.613 1167.76 104.465C1167.04 103.28 1166.72 101.727 1166.78 99.8084C1166.85 98.0095 1167.38 96.4072 1168.39 95.0016C1169.44 93.5974 1170.88 92.507 1172.71 91.7303C1174.54 90.9536 1176.67 90.6079 1179.11 90.693C1181.27 90.7684 1183.12 91.1331 1184.65 91.7872C1186.19 92.4413 1187.46 93.2662 1188.47 94.2619C1189.52 95.259 1190.32 96.3477 1190.88 97.5279L1184.46 100.846C1184.06 99.7512 1183.34 98.9258 1182.32 98.3699C1181.34 97.8153 1180.25 97.5171 1179.05 97.4752C1178.37 97.4514 1177.75 97.5497 1177.18 97.77C1176.61 97.9504 1176.16 98.2348 1175.83 98.6234C1175.5 98.972 1175.32 99.4062 1175.3 99.9259C1175.28 100.725 1175.63 101.358 1176.38 101.825C1177.16 102.252 1178.17 102.608 1179.4 102.891C1180.63 103.174 1181.94 103.5 1183.33 103.868C1184.72 104.237 1186 104.762 1187.18 105.444C1188.4 106.087 1189.39 106.982 1190.15 108.129C1190.91 109.276 1191.26 110.769 1191.19 112.608C1191.12 114.607 1190.48 116.326 1189.27 117.764C1188.06 119.163 1186.48 120.248 1184.53 121.021C1182.59 121.753 1180.49 122.08 1178.26 122.002ZM1209.92 123.048C1207.04 122.947 1204.52 122.159 1202.37 120.683C1200.22 119.167 1198.55 117.208 1197.36 114.805C1196.2 112.363 1195.67 109.703 1195.77 106.824C1195.87 103.986 1196.66 101.412 1198.14 99.1025C1199.67 96.7542 1201.65 94.9223 1204.1 93.607C1206.59 92.253 1209.35 91.6291 1212.39 91.7351C1215.47 91.8426 1218.2 92.6385 1220.59 94.1228C1222.98 95.5672 1224.84 97.493 1226.15 99.9005C1227.47 102.268 1228.08 104.951 1227.97 107.949L1227.45 122.88L1219.36 122.597L1219.73 111.864L1222.34 111.234C1222.25 113.553 1221.68 115.634 1220.62 117.478C1219.55 119.282 1218.12 120.693 1216.33 121.711C1214.53 122.689 1212.39 123.134 1209.92 123.048ZM1211.57 115.121C1213.05 115.173 1214.36 114.878 1215.51 114.238C1216.69 113.559 1217.62 112.651 1218.3 111.514C1219.02 110.378 1219.41 109.111 1219.46 107.712C1219.51 106.312 1219.21 105.021 1218.57 103.838C1217.97 102.657 1217.1 101.706 1215.97 100.986C1214.87 100.227 1213.59 99.8219 1212.11 99.7703C1210.67 99.72 1209.36 100.034 1208.17 100.713C1207.03 101.354 1206.1 102.242 1205.38 103.378C1204.7 104.515 1204.33 105.783 1204.29 107.182C1204.24 108.581 1204.51 109.871 1205.11 111.053C1205.75 112.236 1206.62 113.207 1207.71 113.965C1208.85 114.685 1210.13 115.071 1211.57 115.121ZM1246.27 123.537L1237.76 123.24L1238.85 91.9987C1238.93 89.6002 1239.49 87.4582 1240.51 85.5729C1241.54 83.6876 1243.03 82.2188 1244.99 81.1664C1246.95 80.1141 1249.37 79.6382 1252.24 79.7387C1253.24 79.7736 1254.22 79.9078 1255.17 80.1412C1256.13 80.3346 1256.98 80.6044 1257.73 80.9508L1257.45 88.806C1256.79 88.3425 1256.04 87.9962 1255.21 87.767C1254.37 87.5378 1253.56 87.4092 1252.76 87.3813C1251.16 87.3255 1249.86 87.7006 1248.88 88.5065C1247.93 89.2739 1247.43 90.4971 1247.37 92.1761L1246.27 123.537ZM1256.53 101.382L1233.27 100.569L1233.52 93.3735L1256.78 94.1859L1256.53 101.382ZM1274.48 125.303C1271.4 125.195 1268.65 124.438 1266.22 123.033C1263.82 121.588 1261.97 119.663 1260.65 117.255C1259.34 114.808 1258.74 112.005 1258.85 108.847C1258.95 106.009 1259.68 103.433 1261.04 101.119C1262.44 98.7662 1264.33 96.9308 1266.69 95.6127C1269.06 94.2545 1271.77 93.6285 1274.8 93.7346C1277.96 93.8449 1280.62 94.638 1282.77 96.1139C1284.92 97.5498 1286.53 99.4274 1287.61 101.746C1288.73 104.067 1289.24 106.586 1289.15 109.305L1289.06 111.823L1265.55 111.002L1266.95 108.95C1266.81 110.626 1267.04 112.135 1267.63 113.476C1268.26 114.819 1269.17 115.891 1270.34 116.693C1271.55 117.456 1273 117.866 1274.68 117.925C1276.28 117.981 1277.73 117.651 1279.04 116.936C1280.38 116.223 1281.42 115.199 1282.15 113.863L1288.57 117.389C1287.19 120.023 1285.28 122.038 1282.83 123.433C1280.42 124.79 1277.64 125.413 1274.48 125.303ZM1267.52 106.328L1280.77 106.791C1280.69 105.747 1280.36 104.815 1279.79 103.995C1279.26 103.136 1278.54 102.47 1277.64 101.998C1276.73 101.487 1275.68 101.21 1274.48 101.168C1273.24 101.125 1272.14 101.326 1271.16 101.772C1270.22 102.22 1269.44 102.853 1268.81 103.672C1268.23 104.452 1267.79 105.337 1267.52 106.328Z" fill="#101014"/>
<path d="M1345.19 96.2749C1347.76 96.3646 1349.91 94.3561 1350 91.7889C1350.09 89.2217 1348.08 87.0679 1345.52 86.9783C1342.95 86.8886 1340.79 88.8971 1340.7 91.4643C1340.61 94.0315 1342.62 96.1853 1345.19 96.2749Z" fill="white"/>
<path d="M1352.64 99.6703C1354.39 101.549 1357.34 101.652 1359.21 99.8998C1361.09 98.1479 1361.2 95.2048 1359.44 93.3261C1357.69 91.4474 1354.75 91.3447 1352.87 93.0966C1350.99 94.8484 1350.89 97.7916 1352.64 99.6703Z" fill="white"/>
<path d="M1334.13 106.593C1334.04 109.16 1331.88 111.168 1329.32 111.079C1326.75 110.989 1324.74 108.835 1324.83 106.268C1324.92 103.701 1327.07 101.692 1329.64 101.782C1332.21 101.872 1334.22 104.026 1334.13 106.593Z" fill="white"/>
<path d="M1330.95 98.9127C1332.7 100.791 1335.64 100.894 1337.52 99.1423C1339.4 97.3904 1339.5 94.4472 1337.75 92.5686C1336 90.6899 1333.06 90.5871 1331.18 92.339C1329.3 94.0909 1329.2 97.0341 1330.95 98.9127Z" fill="white"/>
<path d="M1364.8 107.664C1364.72 110.231 1362.56 112.24 1359.99 112.15C1357.43 112.06 1355.42 109.907 1355.51 107.339C1355.6 104.772 1357.75 102.764 1360.32 102.853C1362.89 102.943 1364.89 105.097 1364.8 107.664Z" fill="white"/>
<path d="M1351.88 121.364C1353.64 123.242 1356.58 123.345 1358.46 121.593C1360.34 119.841 1360.44 116.898 1358.69 115.019C1356.93 113.141 1353.99 113.038 1352.11 114.79C1350.23 116.542 1350.13 119.485 1351.88 121.364Z" fill="white"/>
<path d="M1348.93 122.468C1348.84 125.035 1346.69 127.044 1344.12 126.954C1341.55 126.864 1339.54 124.71 1339.63 122.143C1339.72 119.576 1341.88 117.568 1344.44 117.657C1347.01 117.747 1349.02 119.901 1348.93 122.468Z" fill="white"/>
<path d="M1330.19 120.606C1331.94 122.485 1334.89 122.587 1336.76 120.836C1338.64 119.084 1338.75 116.141 1336.99 114.262C1335.24 112.383 1332.3 112.28 1330.42 114.032C1328.54 115.784 1328.44 118.727 1330.19 120.606Z" fill="white"/>
</g>
<defs>
<clipPath id="clip0_542_1641">
<rect width="1366" height="168" fill="white"/>
</clipPath>
</defs>
</svg>
